<?xml version="1.0" encoding="UTF-8"?><svg id="Ebene_2" xmlns="http://www.w3.org/2000/svg" viewBox="0 0 350 350"><defs><style>.cls-1{fill:#e30d7d;}.cls-1,.cls-2{stroke-width:0px;}.cls-2{fill:#e3e5e8;}</style></defs><g id="Ebene_1-2"><rect class="cls-2" x="234.39" y="217.71" width="36.49" height="58.72"/><rect class="cls-2" x="234.39" y="73.57" width="36.49" height="58.72"/><rect class="cls-2" x="79.13" y="289.77" width="36.49" height="58.73"/><rect class="cls-2" x="79.13" y="217.71" width="36.49" height="58.72"/><rect class="cls-2" x="79.13" y="73.57" width="36.49" height="58.72"/><rect class="cls-2" x="79.13" y="1.51" width="36.48" height="58.72"/><rect class="cls-2" x="1.5" y="289.77" width="36.49" height="58.73"/><rect class="cls-2" x="1.5" y="145.64" width="36.49" height="58.72"/><rect class="cls-2" x="1.5" y="1.51" width="36.49" height="58.72"/><rect class="cls-2" x="312.01" y="289.77" width="36.49" height="58.73"/><rect class="cls-2" x="312.01" y="145.64" width="36.49" height="58.72"/><polygon class="cls-1" points="270.87 144.13 234.39 144.13 233.32 144.58 232.88 145.64 232.88 204.36 233.32 205.43 234.39 205.86 270.87 205.86 271.94 205.43 272.38 204.36 272.38 145.64 271.94 144.58 270.87 144.13"/><polygon class="cls-1" points="270.87 0 234.39 0 233.32 .44 232.88 1.5 232.88 60.23 233.32 61.29 234.39 61.74 270.87 61.74 271.94 61.29 272.38 60.23 272.38 1.5 271.94 .44 270.87 0"/><polygon class="cls-1" points="115.62 144.13 79.13 144.13 78.07 144.58 77.63 145.64 77.63 204.36 78.07 205.43 79.13 205.86 115.62 205.86 116.68 205.43 117.13 204.36 117.13 145.64 116.68 144.58 115.62 144.13"/><polygon class="cls-1" points="37.99 216.2 1.51 216.2 .44 216.64 0 217.71 0 276.43 .44 277.5 1.51 277.93 37.99 277.93 39.06 277.49 39.5 276.43 39.5 217.71 39.06 216.64 37.99 216.2"/><polygon class="cls-1" points="37.99 72.06 1.51 72.06 .44 72.51 0 73.57 0 132.3 .44 133.37 1.51 133.8 37.99 133.8 39.06 133.36 39.5 132.3 39.5 73.57 39.06 72.51 37.99 72.06"/><polygon class="cls-1" points="348.5 216.2 312.01 216.2 310.95 216.64 310.51 217.71 310.51 276.43 310.95 277.5 312.01 277.93 348.5 277.93 349.56 277.49 350 276.43 350 217.71 349.56 216.64 348.5 216.2"/><polygon class="cls-1" points="270.87 288.27 234.39 288.27 233.32 288.71 232.88 289.78 232.88 348.5 233.32 349.56 234.39 350 270.87 350 271.94 349.56 272.38 348.5 272.38 289.78 271.94 288.71 270.87 288.27"/><polygon class="cls-1" points="193.25 288.27 156.76 288.27 155.7 288.71 155.25 289.78 155.25 348.5 155.7 349.56 156.76 350 193.25 350 194.31 349.56 194.75 348.5 194.75 289.78 194.31 288.71 193.25 288.27"/><polygon class="cls-1" points="193.25 216.2 156.76 216.2 155.7 216.64 155.25 217.71 155.25 276.43 155.7 277.5 156.76 277.93 193.25 277.93 194.31 277.49 194.75 276.43 194.75 217.71 194.31 216.64 193.25 216.2"/><polygon class="cls-1" points="193.25 144.13 156.76 144.13 155.7 144.58 155.25 145.64 155.25 204.36 155.7 205.43 156.76 205.86 193.25 205.86 194.31 205.43 194.75 204.36 194.75 145.64 194.31 144.58 193.25 144.13"/><polygon class="cls-1" points="193.25 72.06 156.76 72.06 155.7 72.51 155.25 73.57 155.25 132.3 155.7 133.37 156.76 133.8 193.25 133.8 194.31 133.36 194.75 132.3 194.75 73.57 194.31 72.51 193.25 72.06"/><polygon class="cls-1" points="193.25 0 156.76 0 155.69 .44 155.26 1.5 155.26 60.23 155.69 61.29 156.76 61.74 193.25 61.74 194.31 61.29 194.75 60.23 194.75 1.5 194.31 .44 193.25 0"/><polygon class="cls-1" points="349.56 72.51 348.5 72.06 312.01 72.06 310.95 72.51 310.51 73.57 310.51 132.3 310.95 133.37 312.01 133.8 348.5 133.8 349.56 133.36 350 132.3 350 73.57 349.56 72.51"/><rect class="cls-2" x="312.01" y="1.51" width="36.5" height="58.72"/></g></svg>