<?xml version="1.0" encoding="UTF-8"?>
<svg id="Ebene_2" data-name="Ebene 2" xmlns="http://www.w3.org/2000/svg" viewBox="0 0 488.34 215.9">
  <defs>
    <style>
      .cls-1 {
        fill: #ed1e79;
        stroke: #ed1e79;
        stroke-miterlimit: 10;
        stroke-width: .59px;
      }

      .cls-2 {
        fill: #6476fd;
      }

      .cls-2, .cls-3, .cls-4, .cls-5, .cls-6, .cls-7 {
        stroke-width: 0px;
      }

      .cls-3 {
        fill: #e4007e;
      }

      .cls-4 {
        fill: #fff;
      }

      .cls-5 {
        fill: #fcfc65;
      }

      .cls-6 {
        fill: #f5f5f5;
      }

      .cls-7 {
        fill: #044854;
      }
    </style>
  </defs>
  <g id="Ebene_1-2" data-name="Ebene 1">
    <g>
      <path class="cls-7" d="m488.31,107.1h0c-.35-5.11-3.7-9.54-8.54-11.19-8.73-2.96-20.99-10.62-34.84-28.7-13.24-17.27-12.09-39.14-10.73-51.81.68-6.3-3.09-12.23-9.07-14.35l-.48-.17c-4.08-1.45-8.61-.84-12.15,1.65-8.83,6.2-27.34,17.33-46.45,17.33-17.59,0-35.87-10.36-46.17-17.32-5.24-3.54-12.16-3.36-17.24.4-3.78,2.81-4.72,8.03-4.06,12.69,1.59,11.21,1.62,32.67-10.82,50.81-9.56,13.94-24.56,23.1-34.7,28.1-6.53,3.21-9.77,8.06-8.98,15.19.79,7.13,6.93,10.54,10.15,11.6,7.38,2.42,16.11,6.88,30.63,24.03,14.62,17.27,15.32,40.31,13.72,52.92-.75,5.9.64,11.85,5.33,15.5h0c4.46,3.47,12.26,2.34,16.78-1.05,5.32-3.99,10.95-7.81,16.81-10.49,6.57-3,12.88-4.68,16.89-5.02,2.18-.18,4.21-.94,4.89-3.01.83-2.51,2.67-5.44,6.76-5.44s5.88,2.72,6.79,5.14c.69,1.83,2.34,3.14,4.29,3.31,2.82.25,7.86,1.35,16.73,4.74,7.29,2.79,12.65,6.91,17.14,9.86,7.77,5.08,13.68,3.77,17.6,1.27,3.55-2.26,5.42-6.41,4.84-10.58-1.29-9.36-2.49-31.13,9.5-51.62,9.9-16.91,25.33-25.13,35.24-29.83,5.94-2.82,10.58-7.43,10.13-13.99m-232.13,7.53c-3.69,0-6.68-2.99-6.68-6.68s2.99-6.68,6.68-6.68,6.68,2.99,6.68,6.68-2.99,6.68-6.68,6.68M311.36,6.86c3.69,0,6.68,2.99,6.68,6.68s-2.99,6.68-6.68,6.68-6.68-2.99-6.68-6.68,2.99-6.68,6.68-6.68m0,202.18c-3.69,0-6.68-2.99-6.68-6.68s2.99-6.68,6.68-6.68,6.68,2.99,6.68,6.68-2.99,6.68-6.68,6.68m108.74-.82c-3.69,0-6.68-2.99-6.68-6.68s2.99-6.68,6.68-6.68,6.68,2.99,6.68,6.68-2.99,6.68-6.68,6.68m0-188c-3.69,0-6.68-2.99-6.68-6.68s2.99-6.68,6.68-6.68,6.68,2.99,6.68,6.68-2.99,6.68-6.68,6.68m54.08,94.49c-3.69,0-6.68-2.99-6.68-6.68s2.99-6.68,6.68-6.68,6.68,2.99,6.68,6.68-2.99,6.68-6.68,6.68"/>
      <g>
        <rect class="cls-4" x="325.97" y="133.14" width="7.33" height="11.91" rx="1.89" ry="1.89"/>
        <rect class="cls-4" x="325.97" y="114.69" width="7.33" height="11.91" rx="1.89" ry="1.89"/>
        <rect class="cls-4" x="325.97" y="95.93" width="7.33" height="11.91" rx="1.89" ry="1.89"/>
        <rect class="cls-4" x="325.97" y="77.18" width="7.33" height="11.91" rx="1.89" ry="1.89"/>
        <rect class="cls-4" x="325.97" y="58.44" width="7.33" height="11.91" rx="1.89" ry="1.89"/>
        <rect class="cls-4" x="344.67" y="133.14" width="7.33" height="11.91" rx="1.89" ry="1.89"/>
        <rect class="cls-4" x="344.67" y="114.69" width="7.33" height="11.91" rx="1.89" ry="1.89"/>
        <rect class="cls-4" x="344.67" y="95.93" width="7.33" height="11.91" rx="1.89" ry="1.89"/>
        <rect class="cls-4" x="344.67" y="77.18" width="7.33" height="11.91" rx="1.89" ry="1.89"/>
        <rect class="cls-4" x="344.67" y="58.44" width="7.33" height="11.91" rx="1.89" ry="1.89"/>
        <rect class="cls-4" x="363.39" y="133.14" width="7.33" height="11.91" rx="1.89" ry="1.89"/>
        <rect class="cls-4" x="363.39" y="114.69" width="7.33" height="11.91" rx="1.89" ry="1.89"/>
        <rect class="cls-4" x="363.39" y="95.93" width="7.33" height="11.91" rx="1.89" ry="1.89"/>
        <rect class="cls-4" x="363.39" y="77.18" width="7.33" height="11.91" rx="1.89" ry="1.89"/>
        <rect class="cls-4" x="363.39" y="58.44" width="7.33" height="11.91" rx="1.89" ry="1.89"/>
        <rect class="cls-4" x="382.12" y="133.14" width="7.33" height="11.91" rx="1.89" ry="1.89"/>
        <rect class="cls-4" x="382.12" y="114.69" width="7.33" height="11.91" rx="1.89" ry="1.89"/>
        <rect class="cls-4" x="382.12" y="95.93" width="7.33" height="11.91" rx="1.89" ry="1.89"/>
        <rect class="cls-4" x="382.12" y="77.18" width="7.33" height="11.91" rx="1.89" ry="1.89"/>
        <rect class="cls-4" x="382.12" y="58.44" width="7.33" height="11.91" rx="1.89" ry="1.89"/>
        <rect class="cls-4" x="400.84" y="133.14" width="7.33" height="11.91" rx="1.89" ry="1.89"/>
        <rect class="cls-4" x="400.84" y="114.69" width="7.33" height="11.91" rx="1.89" ry="1.89"/>
        <rect class="cls-4" x="400.84" y="95.93" width="7.33" height="11.91" rx="1.89" ry="1.89"/>
        <rect class="cls-4" x="400.84" y="77.18" width="7.33" height="11.91" rx="1.89" ry="1.89"/>
        <rect class="cls-4" x="400.84" y="58.44" width="7.33" height="11.91" rx="1.89" ry="1.89"/>
        <rect class="cls-1" x="325.54" y="75.95" width="8.2" height="14.38" rx="1.62" ry="1.62"/>
        <rect class="cls-1" x="344.25" y="75.95" width="8.2" height="14.38" rx="1.62" ry="1.62"/>
        <rect class="cls-1" x="381.68" y="75.95" width="8.2" height="14.38" rx="1.62" ry="1.62"/>
        <rect class="cls-1" x="400.41" y="75.95" width="8.2" height="14.38" rx="1.62" ry="1.62"/>
        <rect class="cls-1" x="344.24" y="57.21" width="8.2" height="14.38" rx="1.62" ry="1.62"/>
        <rect class="cls-1" x="381.68" y="57.21" width="8.2" height="14.38" rx="1.62" ry="1.62"/>
        <rect class="cls-1" x="362.96" y="75.95" width="8.2" height="14.38" rx="1.62" ry="1.62"/>
        <rect class="cls-1" x="325.54" y="94.69" width="8.2" height="14.38" rx="1.62" ry="1.62"/>
        <rect class="cls-1" x="344.25" y="94.69" width="8.2" height="14.38" rx="1.62" ry="1.62"/>
        <rect class="cls-1" x="381.68" y="94.69" width="8.2" height="14.38" rx="1.62" ry="1.62"/>
        <rect class="cls-1" x="400.41" y="94.69" width="8.2" height="14.38" rx="1.62" ry="1.62"/>
        <rect class="cls-1" x="362.96" y="94.69" width="8.2" height="14.38" rx="1.62" ry="1.62"/>
        <rect class="cls-1" x="362.96" y="113.46" width="8.2" height="14.38" rx="1.62" ry="1.62"/>
        <rect class="cls-1" x="344.25" y="113.46" width="8.2" height="14.38" rx="1.62" ry="1.62"/>
        <rect class="cls-1" x="381.68" y="113.46" width="8.2" height="14.38" rx="1.62" ry="1.62"/>
        <rect class="cls-1" x="362.96" y="131.91" width="8.2" height="14.38" rx="1.62" ry="1.62"/>
        <circle class="cls-5" cx="367.06" cy="166.16" r="4.1"/>
      </g>
    </g>
    <g>
      <g>
        <circle class="cls-6" cx="52.27" cy="107.84" r="52.27"/>
        <g>
          <path class="cls-2" d="m35.44,119.32l9.43-31.29h9.55l-14.49,41.61h-8.94l-14.43-41.61h9.52l9.37,31.29Z"/>
          <path class="cls-2" d="m77.51,129.63h-8.26v-31.84l-9.86,3.06v-6.72l17.23-6.17h.89v41.67Z"/>
        </g>
      </g>
      <g>
        <circle class="cls-6" cx="167.47" cy="107.84" r="52.27"/>
        <g>
          <path class="cls-3" d="m150.64,119.32l9.43-31.29h9.55l-14.49,41.61h-8.94l-14.43-41.61h9.52l9.37,31.29Z"/>
          <path class="cls-3" d="m201.16,129.63h-28.52v-5.66l13.46-14.35c1.85-2.02,3.21-3.78,4.1-5.29.89-1.51,1.33-2.93,1.33-4.29,0-1.85-.47-3.3-1.4-4.36-.93-1.06-2.27-1.59-4-1.59-1.87,0-3.34.64-4.42,1.93-1.08,1.29-1.61,2.98-1.61,5.07h-8.29c0-2.53.6-4.85,1.82-6.94,1.21-2.1,2.92-3.74,5.13-4.93,2.21-1.19,4.72-1.79,7.52-1.79,4.29,0,7.62,1.03,9.99,3.09,2.37,2.06,3.56,4.96,3.56,8.72,0,2.06-.53,4.15-1.6,6.29-1.07,2.13-2.9,4.62-5.49,7.46l-9.46,9.98h17.89v6.66Z"/>
        </g>
      </g>
    </g>
  </g>
</svg>