<?xml version="1.0" encoding="UTF-8"?>
<svg id="Ebene_2" data-name="Ebene 2" xmlns="http://www.w3.org/2000/svg" viewBox="0 0 244.39 215.9">
  <defs>
    <style>
      .cls-1 {
        fill: #ed1e79;
        stroke: #ed1e79;
        stroke-miterlimit: 10;
        stroke-width: .59px;
      }

      .cls-2 {
        fill: #13414c;
      }

      .cls-2, .cls-3, .cls-4 {
        stroke-width: 0px;
      }

      .cls-3 {
        fill: #fff;
      }

      .cls-4 {
        fill: #fcfc65;
      }
    </style>
  </defs>
  <g id="Ebene_1-2" data-name="Ebene 1">
    <path class="cls-2" d="m244.36,107.1h0c-.35-5.11-3.7-9.54-8.54-11.19-8.73-2.96-20.99-10.62-34.84-28.7-13.24-17.27-12.09-39.14-10.73-51.81.68-6.3-3.09-12.23-9.07-14.35l-.48-.17c-4.08-1.45-8.61-.84-12.15,1.65-8.83,6.2-27.34,17.33-46.45,17.33-17.59,0-35.87-10.36-46.17-17.32-5.24-3.54-12.16-3.36-17.24.4-3.78,2.81-4.72,8.03-4.06,12.69,1.59,11.21,1.62,32.67-10.82,50.81-9.56,13.94-24.56,23.1-34.7,28.1C2.57,97.76-.67,102.61.12,109.74c.79,7.13,6.93,10.54,10.15,11.6,7.38,2.42,16.11,6.88,30.63,24.03,14.62,17.27,15.32,40.31,13.72,52.92-.75,5.9.64,11.85,5.33,15.5h0c4.46,3.47,12.26,2.34,16.78-1.05,5.32-3.99,10.95-7.81,16.81-10.49,6.57-3,12.88-4.68,16.89-5.02,2.18-.18,4.21-.94,4.89-3.01.83-2.51,2.67-5.44,6.76-5.44s5.88,2.72,6.79,5.14c.69,1.83,2.34,3.14,4.29,3.31,2.82.25,7.86,1.35,16.73,4.74,7.29,2.79,12.65,6.91,17.14,9.86,7.77,5.08,13.68,3.77,17.6,1.27,3.55-2.26,5.42-6.41,4.84-10.58-1.29-9.36-2.49-31.13,9.5-51.62,9.9-16.91,25.33-25.13,35.24-29.83,5.94-2.82,10.58-7.43,10.13-13.99m-232.13,7.53c-3.69,0-6.68-2.99-6.68-6.68s2.99-6.68,6.68-6.68,6.68,2.99,6.68,6.68-2.99,6.68-6.68,6.68M67.42,6.86c3.69,0,6.68,2.99,6.68,6.68s-2.99,6.68-6.68,6.68-6.68-2.99-6.68-6.68,2.99-6.68,6.68-6.68m0,202.18c-3.69,0-6.68-2.99-6.68-6.68s2.99-6.68,6.68-6.68,6.68,2.99,6.68,6.68-2.99,6.68-6.68,6.68m108.74-.82c-3.69,0-6.68-2.99-6.68-6.68s2.99-6.68,6.68-6.68,6.68,2.99,6.68,6.68-2.99,6.68-6.68,6.68m0-188c-3.69,0-6.68-2.99-6.68-6.68s2.99-6.68,6.68-6.68,6.68,2.99,6.68,6.68-2.99,6.68-6.68,6.68m54.08,94.49c-3.69,0-6.68-2.99-6.68-6.68s2.99-6.68,6.68-6.68,6.68,2.99,6.68,6.68-2.99,6.68-6.68,6.68"/>
    <g>
      <rect class="cls-3" x="82.03" y="133.14" width="7.33" height="11.91" rx="1.89" ry="1.89"/>
      <rect class="cls-3" x="82.03" y="114.69" width="7.33" height="11.91" rx="1.89" ry="1.89"/>
      <rect class="cls-3" x="82.03" y="95.93" width="7.33" height="11.91" rx="1.89" ry="1.89"/>
      <rect class="cls-3" x="82.03" y="77.18" width="7.33" height="11.91" rx="1.89" ry="1.89"/>
      <rect class="cls-3" x="82.03" y="58.44" width="7.33" height="11.91" rx="1.89" ry="1.89"/>
      <rect class="cls-3" x="100.73" y="133.14" width="7.33" height="11.91" rx="1.89" ry="1.89"/>
      <rect class="cls-3" x="100.73" y="114.69" width="7.33" height="11.91" rx="1.89" ry="1.89"/>
      <rect class="cls-3" x="100.73" y="95.93" width="7.33" height="11.91" rx="1.89" ry="1.89"/>
      <rect class="cls-3" x="100.73" y="77.18" width="7.33" height="11.91" rx="1.89" ry="1.89"/>
      <rect class="cls-3" x="100.73" y="58.44" width="7.33" height="11.91" rx="1.89" ry="1.89"/>
      <rect class="cls-3" x="119.45" y="133.14" width="7.33" height="11.91" rx="1.89" ry="1.89"/>
      <rect class="cls-3" x="119.45" y="114.69" width="7.33" height="11.91" rx="1.89" ry="1.89"/>
      <rect class="cls-3" x="119.45" y="95.93" width="7.33" height="11.91" rx="1.89" ry="1.89"/>
      <rect class="cls-3" x="119.45" y="77.18" width="7.33" height="11.91" rx="1.89" ry="1.89"/>
      <rect class="cls-3" x="119.45" y="58.44" width="7.33" height="11.91" rx="1.89" ry="1.89"/>
      <rect class="cls-3" x="138.18" y="133.14" width="7.33" height="11.91" rx="1.89" ry="1.89"/>
      <rect class="cls-3" x="138.18" y="114.69" width="7.33" height="11.91" rx="1.89" ry="1.89"/>
      <rect class="cls-3" x="138.18" y="95.93" width="7.33" height="11.91" rx="1.89" ry="1.89"/>
      <rect class="cls-3" x="138.18" y="77.18" width="7.33" height="11.91" rx="1.89" ry="1.89"/>
      <rect class="cls-3" x="138.18" y="58.44" width="7.33" height="11.91" rx="1.89" ry="1.89"/>
      <rect class="cls-3" x="156.9" y="133.14" width="7.33" height="11.91" rx="1.89" ry="1.89"/>
      <rect class="cls-3" x="156.9" y="114.69" width="7.33" height="11.91" rx="1.89" ry="1.89"/>
      <rect class="cls-3" x="156.9" y="95.93" width="7.33" height="11.91" rx="1.89" ry="1.89"/>
      <rect class="cls-3" x="156.9" y="77.18" width="7.33" height="11.91" rx="1.89" ry="1.89"/>
      <rect class="cls-3" x="156.9" y="58.44" width="7.33" height="11.91" rx="1.89" ry="1.89"/>
      <rect class="cls-1" x="81.6" y="75.95" width="8.2" height="14.38" rx="1.62" ry="1.62"/>
      <rect class="cls-1" x="100.31" y="75.95" width="8.2" height="14.38" rx="1.62" ry="1.62"/>
      <rect class="cls-1" x="137.74" y="75.95" width="8.2" height="14.38" rx="1.62" ry="1.62"/>
      <rect class="cls-1" x="156.47" y="75.95" width="8.2" height="14.38" rx="1.62" ry="1.62"/>
      <rect class="cls-1" x="100.3" y="57.21" width="8.2" height="14.38" rx="1.62" ry="1.62"/>
      <rect class="cls-1" x="137.74" y="57.21" width="8.2" height="14.38" rx="1.62" ry="1.62"/>
      <rect class="cls-1" x="119.02" y="75.95" width="8.2" height="14.38" rx="1.62" ry="1.62"/>
      <rect class="cls-1" x="81.6" y="94.69" width="8.2" height="14.38" rx="1.62" ry="1.62"/>
      <rect class="cls-1" x="100.31" y="94.69" width="8.2" height="14.38" rx="1.62" ry="1.62"/>
      <rect class="cls-1" x="137.74" y="94.69" width="8.2" height="14.38" rx="1.62" ry="1.62"/>
      <rect class="cls-1" x="156.47" y="94.69" width="8.2" height="14.38" rx="1.62" ry="1.62"/>
      <rect class="cls-1" x="119.02" y="94.69" width="8.2" height="14.38" rx="1.62" ry="1.62"/>
      <rect class="cls-1" x="119.02" y="113.46" width="8.2" height="14.38" rx="1.62" ry="1.62"/>
      <rect class="cls-1" x="100.31" y="113.46" width="8.2" height="14.38" rx="1.62" ry="1.62"/>
      <rect class="cls-1" x="137.74" y="113.46" width="8.2" height="14.38" rx="1.62" ry="1.62"/>
      <rect class="cls-1" x="119.02" y="131.91" width="8.2" height="14.38" rx="1.62" ry="1.62"/>
      <circle class="cls-4" cx="123.11" cy="166.16" r="4.1"/>
    </g>
  </g>
</svg>