<?xml version="1.0" encoding="UTF-8"?>
<svg id="Ebene_2" data-name="Ebene 2" xmlns="http://www.w3.org/2000/svg" viewBox="0 0 1080 1080">
  <defs>
    <style>
      .cls-1 {
        fill: #061411;
      }

      .cls-1, .cls-2, .cls-3, .cls-4 {
        stroke-width: 0px;
      }

      .cls-2 {
        fill: #fbfdfc;
      }

      .cls-3 {
        fill: #58bdbe;
      }

      .cls-4 {
        fill: #fff;
      }
    </style>
  </defs>
  <g id="Ebene_2-2" data-name="Ebene 2">
    <g>
      <rect class="cls-2" width="1080" height="1080" rx="87.28" ry="87.28"/>
      <path class="cls-3" d="M135.16,401.18l70.58-35.95c33.97-17.48,57.39-50.79,62-89.05l9.89-80.14c10.55-85.42,105.54-129.61,176.12-82.12l66.62,44.52c31.66,21.44,71.9,25.39,106.86,10.55l72.89-31c77.83-32.98,163.25,28.69,158.31,114.77l-4.62,80.47c-2.31,38.59,14.51,75.86,44.85,99.6l62.99,49.14c67.28,52.44,57.72,158.31-17.81,196.89l-70.58,35.62c-33.97,17.48-57.39,50.79-62,89.05l-9.89,80.14c-10.55,85.42-105.54,129.61-176.12,82.12,0,0-32.38-28.43-71.9-47.13s-83.42-16.45-107.21-6.43l-66.59,29.81c-77.83,32.98-163.25-28.69-158.31-114.77l4.62-80.47c2.31-38.59-14.51-75.86-44.85-99.6l-62.99-49.14c-67.94-52.44-58.38-158.31,17.15-196.89"/>
      <g>
        <g>
          <ellipse class="cls-1" cx="620.23" cy="517.49" rx="40.9" ry="27.04" transform="translate(36.58 1075.91) rotate(-83.58)"/>
          <circle class="cls-4" cx="618.99" cy="506.06" r="9.89"/>
        </g>
        <g>
          <ellipse class="cls-1" cx="461.52" cy="502.07" rx="40.9" ry="27.04" transform="translate(-89.04 904.51) rotate(-83.58)"/>
          <circle class="cls-4" cx="460.02" cy="490.89" r="9.89"/>
        </g>
        <path class="cls-1" d="M673.74,666.67c-3.96,35.62-78.16,88.72-160.94,79.15-82.78-9.56-143.14-77.5-139.18-113.12,3.96-35.62,70.91-14.18,153.69-4.95,82.78,9.23,150.39,3.3,146.43,38.92Z"/>
      </g>
    </g>
  </g>
</svg>