<svg xmlns="http://www.w3.org/2000/svg" viewBox="0 0 660 400">
  <defs>
    <style>
      .cls-1 {
        fill: #42c9c9;
      }

      .cls-2 {
        fill: #bbdf6e;
      }

      .cls-3 {
        fill: #044854;
      }

      .cls-4 {
        fill: #e5077d;
        stroke: #e6007d;
      }

      .cls-4, .cls-5 {
        stroke-linecap: round;
        stroke-linejoin: round;
        stroke-width: 1.55px;
      }

      .cls-5, .cls-9 {
        fill: #fff;
      }

      .cls-5 {
        stroke: #fff;
      }

      .cls-6 {
        fill: #f6c426;
      }

      .cls-7 {
        fill: #f1f2c8;
      }

      .cls-8 {
        fill: #bcd0ce;
      }
    </style>
  </defs>
  <title>Asset 16</title>
  <g id="Layer_2" data-name="Layer 2">
    <g id="Ebene_1" data-name="Ebene 1">
      <rect class="cls-1" width="660" height="400"/>
      <g>
        <path class="cls-2" d="M335.61,253.76a4.45,4.45,0,1,1-4.45-4.45,4.45,4.45,0,0,1,4.45,4.45"/>
        <path class="cls-3" d="M466.43,199.05a14.21,14.21,0,0,0-9.55-12.5c-9.75-3.31-23.43-11.85-38.91-32-14.78-19.29-13.5-43.7-12-57.86a15.28,15.28,0,0,0-10.13-16l-.53-.19a14.94,14.94,0,0,0-13.57,1.85c-9.86,6.92-30.53,19.35-51.87,19.35-19.65,0-40.06-11.57-51.56-19.35a16.69,16.69,0,0,0-19.26.46c-4.22,3.13-5.27,9-4.53,14.17,1.77,12.52,1.81,36.48-12.09,56.74C231.77,169.23,215,179.46,203.7,185c-7.29,3.59-10.91,9-10,17S201.41,213.77,205,215c8.24,2.7,18,7.69,34.2,26.84s17.11,45,15.33,59.09c-.84,6.59.71,13.23,6,17.31,5,3.87,13.7,2.61,18.74-1.17A105.19,105.19,0,0,1,298,305.31c7.33-3.35,14.38-5.23,18.86-5.6,2.44-.21,4.71-1,5.47-3.37.92-2.8,3-6.07,7.55-6.07s6.56,3,7.58,5.75a5.7,5.7,0,0,0,4.79,3.7c3.15.27,8.78,1.5,18.68,5.29,8.14,3.11,14.12,7.72,19.15,11,8.67,5.67,15.27,4.21,19.65,1.42a12,12,0,0,0,5.41-11.82c-1.44-10.46-2.78-34.77,10.61-57.64,11.05-18.88,28.29-28.06,39.35-33.31C461.74,211.53,466.93,206.37,466.43,199.05Zm-258.15,8.48a7.46,7.46,0,1,1,7.45-7.45A7.45,7.45,0,0,1,208.28,207.53ZM269,86.89a7.45,7.45,0,1,1-7.45,7.45A7.44,7.44,0,0,1,269,86.89Zm.54,226.51A7.45,7.45,0,1,1,277,306,7.46,7.46,0,0,1,269.57,313.4Zm25.75-82.76h-7.47V217.22h7.47Zm0-19.34h-7.47V197.88h7.47Zm0-19.34h-7.47V178.53h7.47Zm0-19.34h-7.47V159.19h7.47Zm0-19.34h-7.47V139.85h7.47Zm19.74,77.36h-7.48V217.22h7.48Zm0-19.34h-7.48V197.88h7.48Zm0-19.34h-7.48V178.53h7.48Zm0-19.34h-7.48V159.19h7.48Zm0-19.34h-7.48V139.85h7.48Zm19.73,77.36h-7.48V217.22h7.48Zm0-19.34h-7.48V197.88h7.48Zm0-19.34h-7.48V178.53h7.48Zm0-19.34h-7.48V159.19h7.48Zm0-19.34h-7.48V139.85h7.48Zm19.73,77.36H347V217.22h7.48Zm0-19.34H347V197.88h7.48Zm0-19.34H347V178.53h7.48Zm0-19.34H347V159.19h7.48Zm0-19.34H347V139.85h7.48Zm19.73,77.36h-7.47V217.22h7.47Zm0-19.34h-7.47V197.88h7.47Zm0-19.34h-7.47V178.53h7.47Zm0-19.34h-7.47V159.19h7.47Zm0-19.34h-7.47V139.85h7.47Zm16.71-66a7.45,7.45,0,1,1-7.45,7.45A7.45,7.45,0,0,1,391,87.29Zm.48,225a7.45,7.45,0,1,1,7.45-7.45A7.46,7.46,0,0,1,391.44,312.3Zm60.28-104.73a7.45,7.45,0,1,1,7.45-7.45A7.46,7.46,0,0,1,451.72,207.57Z"/>
        <rect class="cls-4" x="327.7" y="217.06" width="7.42" height="13.32"/>
        <rect class="cls-4" x="347.28" y="197.87" width="7.42" height="13.32"/>
        <rect class="cls-4" x="327.7" y="197.87" width="7.42" height="13.32"/>
        <rect class="cls-4" x="308.13" y="197.87" width="7.42" height="13.32"/>
        <rect class="cls-4" x="366.86" y="178.68" width="7.42" height="13.32"/>
        <rect class="cls-4" x="347.28" y="178.68" width="7.42" height="13.32"/>
        <rect class="cls-5" x="327.7" y="178.68" width="7.42" height="13.32"/>
        <rect class="cls-4" x="308.13" y="178.68" width="7.42" height="13.32"/>
        <rect class="cls-4" x="288.55" y="178.68" width="7.42" height="13.32"/>
        <rect class="cls-4" x="366.86" y="159.49" width="7.42" height="13.32"/>
        <rect class="cls-4" x="347.28" y="159.49" width="7.42" height="13.32"/>
        <rect class="cls-5" x="327.7" y="159.49" width="7.42" height="13.32"/>
        <rect class="cls-5" x="308.13" y="159.49" width="7.42" height="13.32"/>
        <rect class="cls-5" x="288.55" y="159.49" width="7.42" height="13.32"/>
        <rect class="cls-4" x="347.28" y="140.3" width="7.42" height="13.32"/>
        <rect class="cls-5" x="308.13" y="140.3" width="7.42" height="13.32"/>
        <path class="cls-6" d="M273.4,121.1a4.45,4.45,0,1,1-4.45-4.44,4.45,4.45,0,0,1,4.45,4.44"/>
        <path class="cls-7" d="M406.24,268.69l-16.89-9.15a1.22,1.22,0,0,1-.49-1.65L400,237.25a1.23,1.23,0,0,1,1.66-.49l16.88,9.15a1.23,1.23,0,0,1,.49,1.66L407.89,268.2a1.22,1.22,0,0,1-1.65.49"/>
        <rect class="cls-4" x="366.81" y="197.87" width="7.42" height="13.32"/>
        <rect class="cls-4" x="366.86" y="217.06" width="7.42" height="13.32"/>
        <rect class="cls-4" x="347.28" y="217.06" width="7.42" height="13.32"/>
        <rect class="cls-4" x="307.61" y="217.27" width="7.42" height="13.32"/>
        <rect class="cls-4" x="366.86" y="139.85" width="7.42" height="13.32"/>
        <rect class="cls-5" x="327.34" y="139.85" width="7.42" height="13.32"/>
        <rect class="cls-4" x="287.88" y="197.87" width="7.42" height="13.32"/>
        <rect class="cls-4" x="287.88" y="217.06" width="7.42" height="13.32"/>
        <rect class="cls-5" x="287.88" y="139.85" width="7.42" height="13.32"/>
        <g>
          <path class="cls-8" d="M368.64,115h-7.1a1.32,1.32,0,0,1-1.32-1.32V103.14a1.32,1.32,0,0,1,1.32-1.32h7.1a1.32,1.32,0,0,1,1.33,1.32v10.51a1.32,1.32,0,0,1-1.33,1.32"/>
          <path class="cls-9" d="M368.34,108.4c0-2.26-.26-5.73-3.25-5.73-3.57,0-3.24,3.47-3.24,5.73s-.15,5.72,3.24,5.72,3.25-3.47,3.25-5.72"/>
        </g>
      </g>
    </g>
  </g>
</svg>
