<svg xmlns="http://www.w3.org/2000/svg" viewBox="0 0 660 400">
  <defs>
    <style>
      .cls-1 {
        fill: #42c9c9;
      }

      .cls-2 {
        fill: #4a5361;
      }

      .cls-3 {
        fill: #fff;
      }

      .cls-4 {
        fill: #4a5462;
      }
    </style>
  </defs>
  <title>Asset 31</title>
  <g id="Layer_2" data-name="Layer 2">
    <g id="Ebene_1" data-name="Ebene 1">
      <rect class="cls-1" width="660" height="400"/>
      <g>
        <path class="cls-2" d="M290.93,135.35a9.2,9.2,0,0,1,10.61-.24c6.34,4.28,17.58,10.65,28.41,10.65,11.75,0,23.14-6.85,28.58-10.66a8.24,8.24,0,0,1,7.47-1l.3.11a8.44,8.44,0,0,1,5.58,8.83c-.84,7.79-1.55,21.24,6.6,31.87,8.52,11.12,16.06,15.83,21.43,17.66a7.81,7.81,0,0,1,5.26,6.88c.28,4-2.58,6.87-6.23,8.61-6.1,2.89-15.59,7.94-21.68,18.35-7.38,12.6-6.64,26-5.85,31.75a6.63,6.63,0,0,1-3,6.51c-2.41,1.54-6.05,2.35-10.83-.78-2.77-1.81-6.06-4.35-10.55-6.06-5.45-2.09-8.55-2.77-10.29-2.92a3.12,3.12,0,0,1-2.63-2,4.36,4.36,0,0,0-4.18-3.16,4.3,4.3,0,0,0-4.16,3.34c-.42,1.28-1.67,1.74-3,1.85A34.32,34.32,0,0,0,312.39,258,57.88,57.88,0,0,0,302,264.42c-2.78,2.09-7.58,2.78-10.33.65s-3.74-5.91-3.28-9.54c1-7.75.55-21.93-8.44-32.55s-14.3-13.3-18.84-14.79c-2-.65-5.76-2.75-6.25-7.14s1.51-7.36,5.53-9.34c6.24-3.07,15.46-8.71,21.35-17.29,7.65-11.16,7.63-24.36,6.65-31.26-.4-2.87.18-6.08,2.5-7.81"/>
        <path class="cls-2" d="M262.35,191.36A8.64,8.64,0,1,0,271,200a8.64,8.64,0,0,0-8.64-8.64m0,12.75a4.11,4.11,0,1,1,4.11-4.11,4.1,4.1,0,0,1-4.11,4.11"/>
        <path class="cls-2" d="M363.21,133.23a8.64,8.64,0,1,0,8.64,8.64,8.64,8.64,0,0,0-8.64-8.64m0,12.75a4.11,4.11,0,1,1,4.1-4.11,4.11,4.11,0,0,1-4.1,4.11"/>
        <path class="cls-2" d="M396.48,191.36a8.64,8.64,0,1,0,8.64,8.64,8.64,8.64,0,0,0-8.64-8.64m0,12.75a4.11,4.11,0,1,1,4.11-4.11,4.11,4.11,0,0,1-4.11,4.11"/>
        <path class="cls-2" d="M363.21,248.89a8.64,8.64,0,1,0,8.64,8.64,8.64,8.64,0,0,0-8.64-8.64m0,12.75a4.11,4.11,0,1,1,4.1-4.11,4.11,4.11,0,0,1-4.1,4.11"/>
        <path class="cls-2" d="M296.31,249.4A8.64,8.64,0,1,0,305,258a8.64,8.64,0,0,0-8.64-8.64m0,12.75a4.11,4.11,0,1,1,4.1-4.11,4.11,4.11,0,0,1-4.1,4.11"/>
        <path class="cls-2" d="M296.31,133.23a8.64,8.64,0,1,0,8.64,8.64,8.64,8.64,0,0,0-8.64-8.64m0,12.75a4.11,4.11,0,1,1,4.1-4.11,4.11,4.11,0,0,1-4.1,4.11"/>
        <path class="cls-3" d="M396.48,204.11a4.11,4.11,0,1,1,4.11-4.11,4.11,4.11,0,0,1-4.11,4.11"/>
        <path class="cls-3" d="M363.21,146a4.11,4.11,0,1,1,4.1-4.11,4.11,4.11,0,0,1-4.1,4.11"/>
        <path class="cls-3" d="M296.31,146a4.11,4.11,0,1,1,4.1-4.11,4.11,4.11,0,0,1-4.1,4.11"/>
        <path class="cls-3" d="M262.35,204.06a4.11,4.11,0,1,1,4.11-4.11,4.1,4.1,0,0,1-4.11,4.11"/>
        <path class="cls-3" d="M296.31,262.15a4.11,4.11,0,1,1,4.1-4.11,4.11,4.11,0,0,1-4.1,4.11"/>
        <path class="cls-3" d="M363.21,261.64a4.11,4.11,0,1,1,4.1-4.11,4.11,4.11,0,0,1-4.1,4.11"/>
        <path class="cls-3" d="M283.66,205.05l1.26-.18,5.41-15.45H294l5.37,15.45,1.27.18v2.14h-6.06v-2.14l1.23-.21L295,202.4h-5.76l-.78,2.44,1.23.21v2.14h-6Zm6.44-5.28h4.08l-2-6.26h-.08Z"/>
        <path class="cls-3" d="M364.36,189.42a8.5,8.5,0,0,1,4.89,1.22,4.16,4.16,0,0,1,1.76,3.65,3.87,3.87,0,0,1-.65,2.2,3.92,3.92,0,0,1-1.9,1.46,3.79,3.79,0,0,1,2.4,1.47,4.37,4.37,0,0,1,.79,2.6,4.56,4.56,0,0,1-1.68,3.86,7.63,7.63,0,0,1-4.77,1.31h-8.74v-2.14l1.89-.36V191.94l-1.89-.37v-2.15Zm-2.44,7.45h2.56a3.53,3.53,0,0,0,2.19-.59,2,2,0,0,0,.77-1.71,2.13,2.13,0,0,0-.77-1.82,3.82,3.82,0,0,0-2.31-.59h-2.44Zm0,2.46v5.13h3.28a3.33,3.33,0,0,0,2.16-.62,2.25,2.25,0,0,0,.74-1.82,2.87,2.87,0,0,0-.63-2,2.61,2.61,0,0,0-2-.69Z"/>
        <path class="cls-3" d="M353.14,157.22c0-2.3-.26-5.85-3.31-5.85-3.64,0-3.31,3.55-3.31,5.85s-.15,5.84,3.31,5.84,3.31-3.55,3.31-5.84"/>
        <path class="cls-4" d="M268.23,203.71c-10-2.72-24.28,2.07-31.18,4.82l.07-36.41a13,13,0,0,0-13-13h0A13,13,0,0,0,214,164a12.8,12.8,0,0,0-1-1.18,13,13,0,0,0-9.2-3.83h0a13,13,0,0,0-11.13,6.3,12.92,12.92,0,0,0-9.25-3.9h0a13,13,0,0,0-12.77,10.47,12.82,12.82,0,0,0-7.63-2.51h0a13,13,0,0,0-13,13l0,7.82v0l-.06,31a25.53,25.53,0,0,0,25.45,25.55l40.06.08h.25c7.55,0,16.1-.7,22.54-5.67,1-.8,1.93-1.56,2.81-2.29,4.91-4.1,8.46-7.06,29.23-10.53,8.93-1.49,10.16-7.07,10.27-9.4C280.7,212.62,275,205.54,268.23,203.71Zm1,19c-22.27,3.73-26.53,7.28-31.9,11.77-.83.68-1.68,1.4-2.65,2.14-5.17,4-12.69,4.59-19.34,4.51L175.24,241a19.88,19.88,0,0,1-19.83-19.91l0-22.63v0l0-16.16a7.39,7.39,0,0,1,7.39-7.37h0a7.37,7.37,0,0,1,7.37,7.4v7.16l0,9a2.8,2.8,0,0,0,5.27,1.34,2.76,2.76,0,0,0,.36-1.34l0-16.16v-8a7.41,7.41,0,0,1,7.4-7.38h0a7.39,7.39,0,0,1,7.37,7.4l0,24.17v0a2.65,2.65,0,0,0,2.81,2.8h0a2.71,2.71,0,0,0,2.73-2.24,2.62,2.62,0,0,0,.06-.57l.05-24.16h0V172a7.41,7.41,0,0,1,7.39-7.38h0a7.39,7.39,0,0,1,7.37,7.41L211,198.6a2.8,2.8,0,0,0,2.81,2.81h0a2.21,2.21,0,0,0,.51,0,2.83,2.83,0,0,0,2.28-2.75l.05-26.53a7.4,7.4,0,0,1,7.39-7.38,7.88,7.88,0,0,1,5.24,2.18,7.36,7.36,0,0,1,2.15,5.23l-.08,40.67v.06c0,.1,0,.2,0,.3s0,.17,0,.26,0,.16.07.24a1.45,1.45,0,0,0,.11.29.43.43,0,0,0,0,0c0,.06.07.1.1.16a1.91,1.91,0,0,0,.31.45,2.5,2.5,0,0,0,.22.24l.15.13a3.06,3.06,0,0,0,.29.21l.13.07a1.76,1.76,0,0,0,.37.17l.11,0a2.73,2.73,0,0,0,.41.1l.15,0,.3,0h.09l.17,0a2.32,2.32,0,0,0,.38,0l.18-.05a2.53,2.53,0,0,0,.33-.12l.06,0c.19-.09,19.94-9.28,31.33-6.19,4.15,1.12,8.19,5.88,8,9.44C274.67,220.72,272.79,222.11,269.19,222.71Z"/>
        <path class="cls-3" d="M274.78,218.58c-.11,2.14-2,3.53-5.59,4.13-22.27,3.73-26.53,7.28-31.9,11.77-.83.68-1.68,1.4-2.65,2.14-5.17,4-12.69,4.59-19.34,4.51L175.24,241a19.88,19.88,0,0,1-19.83-19.91l0-22.63v0l0-16.16a7.39,7.39,0,0,1,7.39-7.37h0a7.37,7.37,0,0,1,7.37,7.4v7.16l0,9a2.8,2.8,0,0,0,5.27,1.34,2.76,2.76,0,0,0,.36-1.34l0-16.16v-8a7.41,7.41,0,0,1,7.4-7.38h0a7.39,7.39,0,0,1,7.37,7.4l0,24.17v0a2.65,2.65,0,0,0,2.81,2.8h0a2.71,2.71,0,0,0,2.73-2.24,2.62,2.62,0,0,0,.06-.57l.05-24.16h0V172a7.41,7.41,0,0,1,7.39-7.38h0a7.39,7.39,0,0,1,7.37,7.41L211,198.6a2.8,2.8,0,0,0,2.81,2.81h0a2.21,2.21,0,0,0,.51,0,2.83,2.83,0,0,0,2.28-2.75l.05-26.53a7.4,7.4,0,0,1,7.39-7.38,7.88,7.88,0,0,1,5.24,2.18,7.36,7.36,0,0,1,2.15,5.23l-.08,40.67v.06c0,.1,0,.2,0,.3s0,.17,0,.26,0,.16.07.24a1.45,1.45,0,0,0,.11.29.43.43,0,0,0,0,0c0,.06.07.1.1.16a1.91,1.91,0,0,0,.31.45,2.5,2.5,0,0,0,.22.24l.15.13a3.06,3.06,0,0,0,.29.21l.13.07a1.76,1.76,0,0,0,.37.17l.11,0a2.73,2.73,0,0,0,.41.1l.15,0,.3,0h.09l.17,0a2.32,2.32,0,0,0,.38,0l.18-.05a2.53,2.53,0,0,0,.33-.12l.06,0c.19-.09,19.94-9.28,31.33-6.19C270.91,210.26,275,215,274.78,218.58Z"/>
        <path class="cls-4" d="M503.29,189.52h0l-.13-7.83a13.13,13.13,0,0,0-13.24-12.79,12.9,12.9,0,0,0-7.59,2.62,12.9,12.9,0,0,0-3.68-6.62,13.19,13.19,0,0,0-9.27-3.65,12.91,12.91,0,0,0-9.13,4l-.06.07a13,13,0,0,0-20.39-2.15,12.19,12.19,0,0,0-1,1.24,13.18,13.18,0,0,0-10.23-4.78,13,13,0,0,0-12.78,13.23l.62,36.4c-6.94-2.64-21.27-7.21-31.25-4.34-6.76,1.94-12.33,9.1-11.93,15.33.15,2.32,1.47,7.89,10.42,9.24,20.82,3.16,24.41,6.07,29.38,10.1.88.71,1.8,1.46,2.85,2.24,6.05,4.52,13.86,5.34,21,5.34l1.88,0,40.05-.68a25.53,25.53,0,0,0,25.06-25.93Zm-24.62,51.27-40.06.69c-6.65.13-14.17-.3-19.4-4.21-1-.73-1.85-1.43-2.68-2.1-5.45-4.42-9.75-7.9-32.08-11.29-3.61-.55-5.51-1.91-5.65-4-.23-3.55,3.75-8.37,7.87-9.56C398,207,417.89,215.9,418.1,216l0,0,.4.13.12,0a2.42,2.42,0,0,0,.47.06h.18a1.86,1.86,0,0,0,.33,0h.12l.42-.11.11,0a3,3,0,0,0,.36-.18l.13-.07a3.15,3.15,0,0,0,.29-.22l.14-.12a1.86,1.86,0,0,0,.23-.26c0-.05.09-.1.13-.16a2,2,0,0,0,.18-.32l.08-.12s0,0,0,0,.08-.23.12-.35,0-.13.05-.19a2.91,2.91,0,0,0,0-.31,2.11,2.11,0,0,0,0-.26s0,0,0-.06l-.7-40.67a7.4,7.4,0,0,1,7.26-7.51,7.57,7.57,0,0,1,5.26,2.08,7.32,7.32,0,0,1,2.26,5.18l.11,6.77L436.6,199a.68.68,0,0,0,0,.14,2.68,2.68,0,0,0,2.77,2.62h.07a2.82,2.82,0,0,0,2.77-2.86l0-.95-.44-25.65a7.41,7.41,0,0,1,7.27-7.52,7.57,7.57,0,0,1,5.26,2.08,7.31,7.31,0,0,1,2.25,5.19l0,2.42h0l.41,24v.19a2.64,2.64,0,0,0,1.68,2.51,2.72,2.72,0,0,0,1.14.25h.05a2.6,2.6,0,0,0,.56-.07,2.81,2.81,0,0,0,2.2-2.79l-.27-15.74-.14-8.44a7.39,7.39,0,0,1,7.26-7.5,7.52,7.52,0,0,1,5.26,2.07,7.4,7.4,0,0,1,2.26,5.2l.13,8h0l.28,16.16v.06A2.65,2.65,0,0,0,480,201l.22,0h0a2.81,2.81,0,0,0,2.76-2.8v-.1L482.76,182a7.28,7.28,0,0,1,2.07-5.25,7.38,7.38,0,0,1,12.7,5l.28,16.16.39,22.64A19.9,19.9,0,0,1,478.67,240.79Z"/>
        <path class="cls-3" d="M498.2,220.58a19.9,19.9,0,0,1-19.53,20.21l-40.06.69c-6.65.13-14.17-.3-19.4-4.21-1-.73-1.85-1.43-2.68-2.1-5.45-4.42-9.75-7.9-32.08-11.29-3.61-.55-5.51-1.91-5.65-4-.23-3.55,3.75-8.37,7.87-9.56C398,207,417.89,215.9,418.1,216l0,0,.4.13.12,0a2.42,2.42,0,0,0,.47.06h.18a1.86,1.86,0,0,0,.33,0h.12l.42-.11.11,0a3,3,0,0,0,.36-.18l.13-.07a3.15,3.15,0,0,0,.29-.22l.14-.12a1.86,1.86,0,0,0,.23-.26c0-.05.09-.1.13-.16a2,2,0,0,0,.18-.32l.08-.12s0,0,0,0,.08-.23.12-.35,0-.13.05-.19a2.91,2.91,0,0,0,0-.31,2.11,2.11,0,0,0,0-.26s0,0,0-.06l-.7-40.67a7.4,7.4,0,0,1,7.26-7.51,7.57,7.57,0,0,1,5.26,2.08,7.32,7.32,0,0,1,2.26,5.18l.11,6.77L436.6,199a.68.68,0,0,0,0,.14,2.68,2.68,0,0,0,2.77,2.62h.07a2.82,2.82,0,0,0,2.77-2.86l0-.95-.44-25.65a7.41,7.41,0,0,1,7.27-7.52,7.57,7.57,0,0,1,5.26,2.08,7.31,7.31,0,0,1,2.25,5.19l0,2.42h0l.41,24v.19a2.64,2.64,0,0,0,1.68,2.51,2.72,2.72,0,0,0,1.14.25h.05a2.6,2.6,0,0,0,.56-.07,2.81,2.81,0,0,0,2.2-2.79l-.27-15.74-.14-8.44a7.39,7.39,0,0,1,7.26-7.5,7.52,7.52,0,0,1,5.26,2.07,7.4,7.4,0,0,1,2.26,5.2l.13,8h0l.28,16.16v.06A2.65,2.65,0,0,0,480,201l.22,0h0a2.81,2.81,0,0,0,2.76-2.8v-.1L482.76,182a7.28,7.28,0,0,1,2.07-5.25,7.38,7.38,0,0,1,12.7,5l.28,16.16Z"/>
      </g>
    </g>
  </g>
</svg>
