<?xml version="1.0" encoding="UTF-8"?><svg id="Ebene_2" xmlns="http://www.w3.org/2000/svg" viewBox="0 0 386.31 386.31"><defs><style>.cls-1{fill:#f7c426;}.cls-1,.cls-2,.cls-3{stroke-width:0px;}.cls-2{fill:#e30d7d;}.cls-3{fill:#fff;}</style></defs><g id="Ebene_1-2"><path class="cls-1" d="m379.29,386.31H7.03c-3.88,0-7.03-3.14-7.03-7.03V7.02C0,3.14,3.14,0,7.03,0h372.26c3.88,0,7.02,3.14,7.02,7.02v372.26c0,3.88-3.14,7.03-7.02,7.03"/><rect class="cls-3" x="165.33" y="233.62" width="55.65" height="55.64"/><rect class="cls-3" x="165.33" y="165.33" width="55.65" height="55.64"/><rect class="cls-3" x="97.04" y="165.33" width="55.65" height="55.64"/><rect class="cls-3" x="233.62" y="97.04" width="55.65" height="55.64"/><rect class="cls-3" x="165.33" y="97.04" width="55.65" height="55.64"/><rect class="cls-3" x="97.04" y="97.04" width="55.65" height="55.64"/><rect class="cls-3" x="233.62" y="28.75" width="55.65" height="55.64"/><rect class="cls-3" x="165.33" y="28.75" width="55.65" height="55.64"/><rect class="cls-3" x="97.04" y="28.75" width="55.65" height="55.64"/><rect class="cls-2" x="300.49" y="300.48" width="58.5" height="58.5" rx=".99" ry=".99"/><rect class="cls-2" x="232.19" y="300.48" width="58.5" height="58.5" rx=".99" ry=".99"/><rect class="cls-2" x="163.9" y="300.48" width="58.5" height="58.5" rx=".99" ry=".99"/><rect class="cls-2" x="95.61" y="300.48" width="58.5" height="58.5" rx=".99" ry=".99"/><rect class="cls-2" x="27.32" y="300.48" width="58.5" height="58.5" rx=".99" ry=".99"/><rect class="cls-2" x="300.49" y="232.19" width="58.5" height="58.5" rx=".99" ry=".99"/><rect class="cls-2" x="232.19" y="232.19" width="58.5" height="58.5" rx=".99" ry=".99"/><rect class="cls-2" x="95.61" y="232.19" width="58.5" height="58.5" rx=".99" ry=".99"/><rect class="cls-2" x="27.32" y="232.19" width="58.5" height="58.5" rx=".99" ry=".99"/><rect class="cls-2" x="300.49" y="163.9" width="58.5" height="58.5" rx=".99" ry=".99"/><rect class="cls-2" x="232.19" y="163.9" width="58.5" height="58.5" rx=".99" ry=".99"/><rect class="cls-2" x="27.32" y="163.9" width="58.5" height="58.5" rx=".99" ry=".99"/><rect class="cls-2" x="300.49" y="95.61" width="58.5" height="58.5" rx=".99" ry=".99"/><rect class="cls-2" x="27.32" y="95.61" width="58.5" height="58.5" rx=".99" ry=".99"/><rect class="cls-2" x="300.49" y="27.32" width="58.5" height="58.5" rx=".99" ry=".99"/><rect class="cls-2" x="27.32" y="27.32" width="58.5" height="58.5" rx=".99" ry=".99"/></g></svg>