<?xml version="1.0" encoding="UTF-8"?>
<svg id="Ebene_2" data-name="Ebene 2" xmlns="http://www.w3.org/2000/svg" viewBox="0 0 160.45 160.45">
  <defs>
    <style>
      .cls-1 {
        fill: #061411;
      }

      .cls-1, .cls-2, .cls-3, .cls-4 {
        stroke-width: 0px;
      }

      .cls-2 {
        fill: #fbfdfc;
      }

      .cls-3 {
        fill: #58bdbe;
      }

      .cls-4 {
        fill: #fff;
      }
    </style>
  </defs>
  <g id="Ebene_2-2" data-name="Ebene 2">
    <g>
      <rect class="cls-2" width="160.45" height="160.45" rx="12.51" ry="12.51"/>
      <path class="cls-3" d="M20.08,59.6l10.49-5.34c5.05-2.6,8.53-7.55,9.21-13.23l1.47-11.91c1.57-12.69,15.68-19.26,26.17-12.2l9.9,6.61c4.7,3.18,10.68,3.77,15.88,1.57l10.83-4.61c11.56-4.9,24.25,4.26,23.52,17.05l-.69,11.96c-.34,5.73,2.16,11.27,6.66,14.8l9.36,7.3c10,7.79,8.57,23.52-2.65,29.25l-10.49,5.29c-5.05,2.6-8.53,7.55-9.21,13.23l-1.47,11.91c-1.57,12.69-15.68,19.26-26.17,12.2,0,0-4.81-4.22-10.68-7-5.87-2.78-12.39-2.44-15.93-.96l-9.89,4.43c-11.56,4.9-24.25-4.26-23.52-17.05l.69-11.96c.34-5.73-2.16-11.27-6.66-14.8l-9.36-7.3c-10.09-7.79-8.67-23.52,2.55-29.25"/>
      <g>
        <g>
          <ellipse class="cls-1" cx="92.15" cy="76.88" rx="6.08" ry="4.02" transform="translate(5.43 159.85) rotate(-83.58)"/>
          <circle class="cls-4" cx="91.96" cy="75.18" r="1.47"/>
        </g>
        <g>
          <ellipse class="cls-1" cx="68.57" cy="74.59" rx="6.08" ry="4.02" transform="translate(-13.23 134.38) rotate(-83.58)"/>
          <circle class="cls-4" cx="68.34" cy="72.93" r="1.47"/>
        </g>
        <path class="cls-1" d="M100.1,99.05c-.59,5.29-11.61,13.18-23.91,11.76-12.3-1.42-21.27-11.51-20.68-16.81s10.53-2.11,22.83-.73c12.3,1.37,22.34.49,21.76,5.78Z"/>
      </g>
    </g>
  </g>
</svg>