<?xml version="1.0" encoding="utf-8"?>
<!-- Generator: Adobe Illustrator 25.2.2, SVG Export Plug-In . SVG Version: 6.00 Build 0)  -->
<svg version="1.1" id="Ebene_1" xmlns="http://www.w3.org/2000/svg" xmlns:xlink="http://www.w3.org/1999/xlink" x="0px" y="0px"
	 viewBox="0 0 600 156.9" style="enable-background:new 0 0 600 156.9;" xml:space="preserve">
<style type="text/css">
	.st0{fill:#4A525E;}
	.st1{fill:#FFFFFF;}
</style>
<path class="st0" d="M584.6,150.9H15.2c-5.5,0-10-4.5-10-10V15.3c0-5.5,4.5-10,10-10h569.4c5.5,0,10,4.5,10,10v125.6
	C594.6,146.4,590.2,150.9,584.6,150.9z"/>
<g>
	<g>
		<path class="st1" d="M51.5,64.5h-4L37,48v16.5h-4V41.2h4l10.4,16.6V41.2h4V64.5z"/>
		<path class="st1" d="M69.6,59.1h-9l-1.9,5.4h-4.2l8.8-23.3h3.6l8.8,23.3h-4.2L69.6,59.1z M61.7,55.8h6.8l-3.4-9.7L61.7,55.8z"/>
		<path class="st1" d="M83.6,41.2l6.7,17.9L97,41.2h5.2v23.3h-4v-7.7l0.4-10.3l-6.9,17.9h-2.9L82,46.6l0.4,10.3v7.7h-4V41.2H83.6z"
			/>
		<path class="st1" d="M120.6,54.1h-9.6v7.2h11.2v3.2H107V41.2h15.1v3.3h-11.1v6.4h9.6V54.1z"/>
		<path class="st1" d="M47.8,105.8H32.6v-2.1l8.1-9c1.2-1.4,2-2.5,2.5-3.3c0.5-0.8,0.7-1.7,0.7-2.6c0-1.2-0.4-2.2-1.1-3
			s-1.7-1.2-2.9-1.2c-1.5,0-2.6,0.4-3.4,1.3c-0.8,0.8-1.2,2-1.2,3.5h-3c0-2.1,0.7-3.9,2.1-5.2c1.4-1.3,3.2-2,5.5-2
			c2.2,0,3.9,0.6,5.1,1.7c1.3,1.1,1.9,2.6,1.9,4.5c0,2.3-1.5,5-4.4,8.2l-6.2,6.8h11.7V105.8z"/>
		<path class="st1" d="M65.6,95.8c0,3.5-0.6,6-1.8,7.7s-3,2.5-5.6,2.5c-2.5,0-4.3-0.8-5.5-2.5c-1.2-1.6-1.8-4.1-1.9-7.4v-4
			c0-3.4,0.6-6,1.8-7.6c1.2-1.7,3-2.5,5.6-2.5c2.5,0,4.4,0.8,5.5,2.4c1.2,1.6,1.8,4.1,1.8,7.4V95.8z M62.6,91.8
			c0-2.5-0.4-4.3-1.1-5.5c-0.7-1.1-1.8-1.7-3.3-1.7c-1.5,0-2.6,0.6-3.3,1.7c-0.7,1.1-1.1,2.9-1.1,5.3v4.7c0,2.5,0.4,4.4,1.1,5.6
			c0.7,1.2,1.8,1.8,3.3,1.8c1.5,0,2.5-0.6,3.3-1.7c0.7-1.1,1.1-2.9,1.1-5.3V91.8z"/>
		<path class="st1" d="M84.6,105.8H69.3v-2.1l8.1-9c1.2-1.4,2-2.5,2.5-3.3c0.5-0.8,0.7-1.7,0.7-2.6c0-1.2-0.4-2.2-1.1-3
			c-0.7-0.8-1.7-1.2-2.9-1.2c-1.5,0-2.6,0.4-3.4,1.3c-0.8,0.8-1.2,2-1.2,3.5h-3c0-2.1,0.7-3.9,2.1-5.2c1.4-1.3,3.2-2,5.5-2
			c2.2,0,3.9,0.6,5.1,1.7c1.3,1.1,1.9,2.6,1.9,4.5c0,2.3-1.5,5-4.4,8.2l-6.2,6.8h11.7V105.8z"/>
		<path class="st1" d="M97.5,105.8h-3V86.1l-6,2.2v-2.7l8.5-3.2h0.5V105.8z"/>
		<path class="st1" d="M120.7,97.1h-7.8v-2.4h7.8V97.1z"/>
		<path class="st1" d="M141.1,105.8h-3V86.1l-6,2.2v-2.7l8.5-3.2h0.5V105.8z"/>
		<path class="st1" d="M164.4,95.8c0,3.5-0.6,6-1.8,7.7c-1.2,1.7-3,2.5-5.6,2.5c-2.5,0-4.3-0.8-5.5-2.5c-1.2-1.6-1.8-4.1-1.9-7.4v-4
			c0-3.4,0.6-6,1.8-7.6c1.2-1.7,3-2.5,5.6-2.5c2.5,0,4.4,0.8,5.5,2.4c1.2,1.6,1.8,4.1,1.8,7.4V95.8z M161.4,91.8
			c0-2.5-0.4-4.3-1.1-5.5c-0.7-1.1-1.8-1.7-3.3-1.7c-1.5,0-2.6,0.6-3.3,1.7c-0.7,1.1-1.1,2.9-1.1,5.3v4.7c0,2.5,0.4,4.4,1.1,5.6
			c0.7,1.2,1.8,1.8,3.3,1.8c1.5,0,2.5-0.6,3.3-1.7s1.1-2.9,1.1-5.3V91.8z"/>
		<path class="st1" d="M182.8,97.1H175v-2.4h7.8V97.1z"/>
		<path class="st1" d="M208.7,105.8h-15.3v-2.1l8.1-9c1.2-1.4,2-2.5,2.5-3.3c0.5-0.8,0.7-1.7,0.7-2.6c0-1.2-0.4-2.2-1.1-3
			s-1.7-1.2-2.9-1.2c-1.5,0-2.6,0.4-3.4,1.3c-0.8,0.8-1.2,2-1.2,3.5h-3c0-2.1,0.7-3.9,2.1-5.2c1.4-1.3,3.2-2,5.5-2
			c2.2,0,3.9,0.6,5.1,1.7s1.9,2.6,1.9,4.5c0,2.3-1.5,5-4.4,8.2l-6.2,6.8h11.7V105.8z"/>
		<path class="st1" d="M216.1,92.7h2.2c1.4,0,2.5-0.4,3.3-1.1s1.2-1.7,1.2-2.9c0-2.7-1.4-4.1-4.1-4.1c-1.3,0-2.3,0.4-3.1,1.1
			c-0.8,0.7-1.1,1.7-1.1,2.9h-3c0-1.8,0.7-3.4,2-4.6c1.3-1.2,3.1-1.8,5.1-1.8c2.2,0,3.9,0.6,5.2,1.7c1.2,1.2,1.9,2.8,1.9,4.8
			c0,1-0.3,2-1,2.9c-0.7,0.9-1.5,1.7-2.7,2.1c1.3,0.4,2.3,1.1,3,2s1,2.1,1,3.4c0,2.1-0.7,3.7-2,5c-1.4,1.2-3.1,1.8-5.3,1.8
			s-4-0.6-5.3-1.8c-1.4-1.2-2.1-2.7-2.1-4.7h3c0,1.2,0.4,2.2,1.2,2.9c0.8,0.7,1.9,1.1,3.2,1.1c1.4,0,2.5-0.4,3.3-1.1
			c0.8-0.7,1.1-1.8,1.1-3.2c0-1.4-0.4-2.4-1.2-3.1c-0.8-0.7-2-1.1-3.6-1.1h-2.2V92.7z"/>
	</g>
</g>
<g>
	<polygon class="st1" points="540.3,70.3 524.8,54.8 509.3,70.3 506.9,67.8 524.8,49.9 542.8,67.8 	"/>
	<rect x="505.2" y="96.9" class="st1" width="39.3" height="3.4"/>
	<rect x="523.1" y="50.6" class="st1" width="3.4" height="38.3"/>
</g>
</svg>
