<?xml version="1.0" encoding="UTF-8"?>
<svg id="Ebene_2" data-name="Ebene 2" xmlns="http://www.w3.org/2000/svg" viewBox="0 0 62.51 62.51">
  <defs>
    <style>
      .cls-1 {
        fill: #d81d69;
      }

      .cls-1, .cls-2 {
        stroke-width: 0px;
      }

      .cls-2 {
        fill: #fff;
      }
    </style>
  </defs>
  <g id="Ebene_2-2" data-name="Ebene 2">
    <circle class="cls-1" cx="31.25" cy="31.25" r="31.25"/>
    <path class="cls-2" d="M39.12,42.29h-15.3v-2.61l7.58-8.27c1.09-1.22,1.87-2.24,2.34-3.05.46-.82.7-1.64.7-2.46,0-1.08-.3-1.96-.91-2.62-.61-.67-1.43-1-2.46-1-1.23,0-2.18.38-2.86,1.12-.68.75-1.02,1.78-1.02,3.08h-3.8c0-1.38.31-2.63.95-3.74.63-1.11,1.53-1.97,2.7-2.59,1.17-.61,2.52-.92,4.05-.92,2.21,0,3.95.55,5.23,1.66,1.28,1.11,1.91,2.64,1.91,4.6,0,1.14-.32,2.33-.96,3.57-.64,1.25-1.69,2.66-3.15,4.24l-5.56,5.95h10.56v3.03Z"/>
  </g>
</svg>