<?xml version="1.0" encoding="UTF-8"?><svg id="Ebene_2" xmlns="http://www.w3.org/2000/svg" viewBox="0 0 481.89 459.21"><defs><style>.cls-1{fill:none;stroke:#c6d5d6;stroke-miterlimit:10;stroke-width:2.83px;}.cls-2,.cls-3,.cls-4,.cls-5{stroke-width:0px;}.cls-3{fill:#f9c625;}.cls-4{fill:#e3f2f2;}.cls-5{fill:red;}</style></defs><g id="Ebene_1-2"><rect class="cls-4" width="481.89" height="459.21" rx="20.33" ry="20.33"/><path class="cls-2" d="m96.35,48.48v17.79c0,2.83-.9,5.07-2.71,6.72-1.81,1.65-4.22,2.48-7.23,2.48s-5.47-.81-7.26-2.44c-1.79-1.63-2.69-3.88-2.69-6.77v-17.77h4.61v17.8c0,1.78.45,3.14,1.35,4.08.9.94,2.23,1.41,3.98,1.41,3.56,0,5.34-1.88,5.34-5.63v-17.66h4.61Zm-16.45-4.02c0-.61.2-1.12.61-1.54.41-.41.97-.62,1.69-.62s1.29.21,1.7.62c.41.41.62.93.62,1.54s-.21,1.12-.62,1.54c-.41.41-.98.62-1.7.62s-1.28-.21-1.69-.62c-.41-.41-.61-.93-.61-1.54Zm8.35.02c0-.61.2-1.12.61-1.54.41-.41.97-.62,1.69-.62s1.29.21,1.7.62c.41.41.62.93.62,1.54s-.21,1.12-.62,1.54c-.41.41-.98.62-1.7.62s-1.28-.21-1.69-.62c-.41-.41-.61-.93-.61-1.54Z"/><path class="cls-2" d="m118.58,65.41c0,3.07-.69,5.51-2.06,7.33-1.37,1.82-3.26,2.72-5.66,2.72s-4.12-.83-5.41-2.5l-.22,2.14h-4.02v-28.08h4.44v10.2c1.28-1.51,3-2.27,5.17-2.27,2.41,0,4.31.9,5.68,2.69,1.38,1.79,2.07,4.3,2.07,7.51v.26Zm-4.44-.38c0-2.14-.38-3.75-1.13-4.83-.76-1.07-1.85-1.61-3.29-1.61-1.93,0-3.28.84-4.06,2.52v8.15c.79,1.72,2.16,2.58,4.09,2.58,1.39,0,2.46-.52,3.22-1.55.76-1.04,1.15-2.6,1.17-4.7v-.57Z"/><path class="cls-2" d="m131.39,75.46c-2.82,0-5.1-.89-6.85-2.66-1.75-1.77-2.62-4.13-2.62-7.08v-.55c0-1.97.38-3.74,1.14-5.29.76-1.55,1.83-2.76,3.21-3.63,1.38-.86,2.91-1.3,4.61-1.3,2.69,0,4.77.86,6.24,2.58,1.47,1.72,2.2,4.15,2.2,7.29v1.79h-12.92c.13,1.63.68,2.92,1.64,3.88.96.95,2.16,1.43,3.61,1.43,2.04,0,3.69-.82,4.97-2.47l2.39,2.28c-.79,1.18-1.85,2.1-3.17,2.75-1.32.65-2.81.98-4.45.98Zm-.53-16.95c-1.22,0-2.2.43-2.95,1.28-.75.85-1.23,2.04-1.43,3.56h8.46v-.33c-.1-1.49-.49-2.61-1.19-3.37-.69-.76-1.66-1.14-2.89-1.14Z"/><path class="cls-2" d="m153.5,59.37c-.58-.1-1.19-.15-1.81-.15-2.04,0-3.41.78-4.11,2.34v13.53h-4.44v-19.78h4.24l.11,2.21c1.07-1.72,2.56-2.58,4.46-2.58.63,0,1.16.09,1.57.26l-.02,4.17Z"/><path class="cls-2" d="m163.16,50.51v4.81h3.49v3.29h-3.49v11.04c0,.76.15,1.3.45,1.64.3.34.83.5,1.6.5.51,0,1.03-.06,1.55-.18v3.44c-1.01.28-1.99.42-2.92.42-3.41,0-5.12-1.88-5.12-5.65v-11.21h-3.25v-3.29h3.25v-4.81h4.44Z"/><path class="cls-2" d="m180.77,59.37c-.58-.1-1.19-.15-1.81-.15-2.04,0-3.41.78-4.11,2.34v13.53h-4.44v-19.78h4.24l.11,2.21c1.07-1.72,2.56-2.58,4.46-2.58.63,0,1.16.09,1.57.26l-.02,4.17Z"/><path class="cls-2" d="m195.22,75.09c-.2-.38-.37-.99-.51-1.85-1.41,1.47-3.14,2.21-5.19,2.21s-3.61-.57-4.86-1.7c-1.26-1.13-1.88-2.53-1.88-4.2,0-2.11.78-3.73,2.35-4.85,1.57-1.13,3.81-1.69,6.72-1.69h2.72v-1.3c0-1.02-.29-1.84-.86-2.46-.57-.62-1.44-.92-2.61-.92-1.01,0-1.84.25-2.49.76-.65.51-.97,1.15-.97,1.93h-4.44c0-1.08.36-2.1,1.08-3.04.72-.94,1.7-1.68,2.93-2.22,1.24-.54,2.62-.8,4.14-.8,2.32,0,4.16.58,5.54,1.75,1.38,1.16,2.08,2.8,2.12,4.91v8.92c0,1.78.25,3.2.75,4.26v.31h-4.53Zm-4.88-3.2c.88,0,1.7-.21,2.48-.64.77-.43,1.36-1,1.75-1.72v-3.73h-2.39c-1.65,0-2.88.29-3.71.86-.83.57-1.24,1.38-1.24,2.43,0,.85.28,1.53.85,2.04.57.51,1.33.76,2.28.76Z"/><path class="cls-2" d="m203.25,65.06c0-3.07.72-5.52,2.17-7.36,1.44-1.83,3.36-2.75,5.75-2.75,2.25,0,4.03.79,5.32,2.36l.2-1.99h4v19.18c0,2.6-.81,4.64-2.42,6.14-1.61,1.5-3.79,2.25-6.54,2.25-1.45,0-2.87-.3-4.25-.9-1.38-.6-2.43-1.39-3.15-2.37l2.1-2.67c1.36,1.62,3.05,2.43,5.05,2.43,1.47,0,2.64-.4,3.49-1.2.85-.8,1.28-1.97,1.28-3.52v-1.33c-1.28,1.43-2.99,2.14-5.12,2.14-2.32,0-4.21-.92-5.68-2.76-1.47-1.84-2.2-4.39-2.2-7.64Zm4.42.38c0,1.99.41,3.55,1.22,4.69.81,1.14,1.93,1.71,3.37,1.71,1.79,0,3.12-.77,3.98-2.3v-8.7c-.84-1.5-2.16-2.25-3.95-2.25-1.46,0-2.6.58-3.41,1.74-.81,1.16-1.22,2.86-1.22,5.12Z"/><path class="cls-2" d="m237.61,73.16c-1.3,1.54-3.16,2.3-5.56,2.3-2.15,0-3.77-.63-4.87-1.88-1.1-1.25-1.65-3.07-1.65-5.45v-12.81h4.44v12.76c0,2.51,1.04,3.77,3.13,3.77s3.61-.77,4.37-2.32v-14.2h4.44v19.78h-4.19l-.11-1.94Z"/><path class="cls-2" d="m250.93,55.32l.13,2.28c1.46-1.77,3.38-2.65,5.76-2.65,4.12,0,6.22,2.36,6.29,7.07v13.07h-4.44v-12.81c0-1.26-.27-2.18-.81-2.79-.54-.6-1.43-.9-2.66-.9-1.79,0-3.13.81-4,2.43v14.08h-4.44v-19.78h4.19Z"/><path class="cls-2" d="m267.22,65.06c0-3.07.72-5.52,2.17-7.36,1.44-1.83,3.36-2.75,5.75-2.75,2.25,0,4.03.79,5.32,2.36l.2-1.99h4v19.18c0,2.6-.81,4.64-2.42,6.14-1.61,1.5-3.79,2.25-6.54,2.25-1.45,0-2.87-.3-4.25-.9-1.38-.6-2.43-1.39-3.15-2.37l2.1-2.67c1.36,1.62,3.05,2.43,5.05,2.43,1.47,0,2.64-.4,3.49-1.2.85-.8,1.28-1.97,1.28-3.52v-1.33c-1.28,1.43-2.99,2.14-5.12,2.14-2.32,0-4.21-.92-5.68-2.76-1.47-1.84-2.2-4.39-2.2-7.64Zm4.42.38c0,1.99.41,3.55,1.22,4.69.81,1.14,1.93,1.71,3.37,1.71,1.79,0,3.12-.77,3.98-2.3v-8.7c-.84-1.5-2.16-2.25-3.95-2.25-1.46,0-2.6.58-3.41,1.74-.81,1.16-1.22,2.86-1.22,5.12Z"/><path class="cls-2" d="m304.02,75.09h-4.44v-28.08h4.44v28.08Z"/><path class="cls-2" d="m321.05,75.09c-.2-.38-.37-.99-.51-1.85-1.41,1.47-3.14,2.21-5.19,2.21s-3.61-.57-4.86-1.7c-1.26-1.13-1.88-2.53-1.88-4.2,0-2.11.78-3.73,2.35-4.85,1.57-1.13,3.81-1.69,6.72-1.69h2.72v-1.3c0-1.02-.29-1.84-.86-2.46-.57-.62-1.44-.92-2.61-.92-1.01,0-1.84.25-2.49.76-.65.51-.97,1.15-.97,1.93h-4.44c0-1.08.36-2.1,1.08-3.04.72-.94,1.7-1.68,2.93-2.22,1.24-.54,2.62-.8,4.14-.8,2.32,0,4.16.58,5.54,1.75,1.38,1.16,2.08,2.8,2.12,4.91v8.92c0,1.78.25,3.2.75,4.26v.31h-4.53Zm-10.2-24.97c0-.61.2-1.12.61-1.54.41-.41.97-.62,1.69-.62s1.29.21,1.7.62c.41.41.62.93.62,1.54s-.21,1.12-.62,1.54c-.41.41-.98.62-1.7.62s-1.28-.21-1.69-.62c-.41-.41-.61-.93-.61-1.54Zm5.32,21.77c.88,0,1.7-.21,2.48-.64.77-.43,1.36-1,1.75-1.72v-3.73h-2.39c-1.65,0-2.88.29-3.71.86-.83.57-1.24,1.38-1.24,2.43,0,.85.28,1.53.85,2.04.57.51,1.33.76,2.28.76Zm3.03-21.75c0-.61.2-1.12.61-1.54.41-.41.97-.62,1.69-.62s1.29.21,1.7.62c.41.41.62.93.62,1.54s-.21,1.12-.62,1.54c-.41.41-.98.62-1.7.62s-1.28-.21-1.69-.62c-.41-.41-.61-.93-.61-1.54Z"/><path class="cls-2" d="m341.84,73.16c-1.3,1.54-3.16,2.3-5.56,2.3-2.15,0-3.77-.63-4.87-1.88-1.1-1.25-1.65-3.07-1.65-5.45v-12.81h4.44v12.76c0,2.51,1.04,3.77,3.13,3.77s3.61-.77,4.37-2.32v-14.2h4.44v19.78h-4.19l-.11-1.94Z"/><path class="cls-2" d="m352.6,75.09v-16.49h-3.02v-3.29h3.02v-1.81c0-2.19.61-3.89,1.83-5.08,1.22-1.19,2.92-1.79,5.12-1.79.78,0,1.61.11,2.49.33l-.11,3.47c-.49-.1-1.05-.15-1.7-.15-2.12,0-3.18,1.09-3.18,3.27v1.75h4.02v3.29h-4.02v16.49h-4.44Z"/><path class="cls-2" d="m370.24,50.51v4.81h3.49v3.29h-3.49v11.04c0,.76.15,1.3.45,1.64.3.34.83.5,1.6.5.51,0,1.03-.06,1.55-.18v3.44c-1.01.28-1.99.42-2.92.42-3.41,0-5.12-1.88-5.12-5.65v-11.21h-3.25v-3.29h3.25v-4.81h4.44Z"/><path class="cls-2" d="m380.27,70.41c.83,0,1.47.23,1.92.7.45.47.68,1.06.68,1.76s-.23,1.27-.68,1.73c-.45.46-1.09.69-1.92.69s-1.42-.23-1.88-.68c-.46-.45-.69-1.03-.69-1.74s.23-1.29.68-1.76c.45-.47,1.08-.7,1.9-.7Z"/><path class="cls-2" d="m391.1,70.41c.83,0,1.47.23,1.92.7.45.47.68,1.06.68,1.76s-.23,1.27-.68,1.73c-.45.46-1.09.69-1.92.69s-1.42-.23-1.88-.68c-.46-.45-.69-1.03-.69-1.74s.23-1.29.68-1.76c.45-.47,1.08-.7,1.9-.7Z"/><path class="cls-2" d="m401.93,70.41c.83,0,1.47.23,1.92.7.45.47.68,1.06.68,1.76s-.23,1.27-.68,1.73c-.45.46-1.09.69-1.92.69s-1.42-.23-1.88-.68c-.46-.45-.69-1.03-.69-1.74s.23-1.29.68-1.76c.45-.47,1.08-.7,1.9-.7Z"/><path class="cls-5" d="m166.23,428.07h-10.31l-2.16,6.2h-4.81l10.05-26.62h4.15l10.07,26.62h-4.83l-2.18-6.2Zm-9.01-3.73h7.71l-3.86-11.04-3.86,11.04Z"/><path class="cls-5" d="m193.55,424.58c0,3.07-.69,5.51-2.06,7.33-1.37,1.82-3.26,2.72-5.66,2.72s-4.12-.83-5.41-2.5l-.22,2.14h-4.02v-28.08h4.44v10.2c1.28-1.51,3-2.27,5.17-2.27,2.41,0,4.31.9,5.68,2.69,1.38,1.79,2.07,4.3,2.07,7.51v.26Zm-4.44-.38c0-2.14-.38-3.75-1.13-4.83-.76-1.07-1.85-1.61-3.29-1.61-1.93,0-3.28.84-4.06,2.52v8.15c.79,1.72,2.16,2.58,4.09,2.58,1.39,0,2.46-.52,3.22-1.55.76-1.04,1.15-2.6,1.17-4.7v-.57Z"/><path class="cls-5" d="m215,424.58c0,3.07-.69,5.51-2.06,7.33-1.37,1.82-3.26,2.72-5.66,2.72s-4.12-.83-5.41-2.5l-.22,2.14h-4.02v-28.08h4.44v10.2c1.28-1.51,3-2.27,5.17-2.27,2.41,0,4.31.9,5.68,2.69,1.38,1.79,2.07,4.3,2.07,7.51v.26Zm-4.44-.38c0-2.14-.38-3.75-1.13-4.83-.76-1.07-1.85-1.61-3.29-1.61-1.93,0-3.28.84-4.06,2.52v8.15c.79,1.72,2.16,2.58,4.09,2.58,1.39,0,2.46-.52,3.22-1.55.76-1.04,1.15-2.6,1.17-4.7v-.57Z"/><path class="cls-5" d="m229.45,418.55c-.58-.1-1.19-.15-1.81-.15-2.04,0-3.41.78-4.11,2.34v13.53h-4.44v-19.78h4.24l.11,2.21c1.07-1.72,2.56-2.58,4.46-2.58.63,0,1.16.09,1.57.26l-.02,4.17Z"/><path class="cls-5" d="m241,434.63c-2.82,0-5.1-.89-6.85-2.66-1.75-1.77-2.62-4.13-2.62-7.08v-.55c0-1.97.38-3.74,1.14-5.29.76-1.55,1.83-2.76,3.21-3.63,1.38-.86,2.91-1.3,4.61-1.3,2.69,0,4.77.86,6.24,2.58,1.47,1.72,2.2,4.15,2.2,7.29v1.79h-12.92c.13,1.63.68,2.92,1.64,3.88.96.95,2.16,1.43,3.61,1.43,2.04,0,3.69-.82,4.97-2.47l2.39,2.28c-.79,1.18-1.85,2.1-3.17,2.75-1.32.65-2.81.98-4.45.98Zm-.53-16.95c-1.22,0-2.2.43-2.95,1.28-.75.85-1.23,2.04-1.43,3.56h8.46v-.33c-.1-1.49-.49-2.61-1.19-3.37-.69-.76-1.66-1.14-2.89-1.14Z"/><path class="cls-5" d="m260.87,431.09c1.11,0,2.03-.32,2.76-.97.73-.65,1.12-1.44,1.17-2.39h4.19c-.05,1.23-.43,2.38-1.15,3.45-.72,1.07-1.69,1.91-2.92,2.53-1.23.62-2.56.93-3.98.93-2.77,0-4.96-.9-6.58-2.69-1.62-1.79-2.43-4.27-2.43-7.42v-.46c0-3.01.8-5.42,2.41-7.23,1.61-1.81,3.8-2.71,6.58-2.71,2.35,0,4.27.69,5.75,2.06,1.48,1.37,2.26,3.17,2.33,5.4h-4.19c-.05-1.13-.44-2.07-1.16-2.8-.73-.73-1.65-1.1-2.77-1.1-1.44,0-2.55.52-3.33,1.56-.78,1.04-1.18,2.62-1.19,4.74v.71c0,2.15.39,3.74,1.16,4.8.77,1.05,1.89,1.58,3.35,1.58Z"/><path class="cls-5" d="m277.1,416.65c1.45-1.68,3.28-2.52,5.5-2.52,4.22,0,6.36,2.41,6.42,7.22v12.92h-4.44v-12.76c0-1.36-.3-2.33-.89-2.9-.59-.57-1.46-.85-2.6-.85-1.78,0-3.11.79-3.98,2.38v14.13h-4.44v-28.08h4.44v10.46Z"/><path class="cls-5" d="m302.59,434.63c-2.82,0-5.1-.89-6.85-2.66-1.75-1.77-2.62-4.13-2.62-7.08v-.55c0-1.97.38-3.74,1.14-5.29.76-1.55,1.83-2.76,3.21-3.63,1.38-.86,2.91-1.3,4.61-1.3,2.69,0,4.77.86,6.24,2.58,1.47,1.72,2.2,4.15,2.2,7.29v1.79h-12.92c.13,1.63.68,2.92,1.64,3.88.96.95,2.16,1.43,3.61,1.43,2.04,0,3.69-.82,4.97-2.47l2.39,2.28c-.79,1.18-1.85,2.1-3.17,2.75-1.32.65-2.81.98-4.45.98Zm-.53-16.95c-1.22,0-2.2.43-2.95,1.28-.75.85-1.23,2.04-1.43,3.56h8.46v-.33c-.1-1.49-.49-2.61-1.19-3.37-.69-.76-1.66-1.14-2.89-1.14Z"/><path class="cls-5" d="m318.46,414.49l.13,2.28c1.46-1.77,3.38-2.65,5.76-2.65,4.12,0,6.22,2.36,6.29,7.07v13.07h-4.44v-12.81c0-1.26-.27-2.18-.81-2.79-.54-.6-1.43-.9-2.66-.9-1.79,0-3.13.81-4,2.43v14.08h-4.44v-19.78h4.19Z"/><path class="cls-2" d="m235.25,252.06c0,3.96-.68,6.9-2.03,8.83-1.35,1.93-3.47,2.89-6.34,2.89s-4.94-.94-6.31-2.82c-1.36-1.88-2.07-4.69-2.12-8.44v-4.52c0-3.91.68-6.82,2.03-8.72,1.35-1.9,3.47-2.85,6.36-2.85s4.97.92,6.32,2.75c1.35,1.83,2.05,4.66,2.08,8.49v4.39Zm-3.38-4.62c0-2.86-.4-4.95-1.21-6.26-.8-1.31-2.08-1.97-3.82-1.97s-2.99.65-3.78,1.96c-.79,1.3-1.2,3.31-1.22,6.01v5.41c0,2.88.42,5,1.25,6.37.83,1.37,2.1,2.06,3.79,2.06s2.91-.65,3.72-1.94c.81-1.29,1.23-3.33,1.27-6.11v-5.54Z"/><path class="cls-2" d="m239.67,241.92c0-1.6.51-2.91,1.53-3.95,1.02-1.04,2.32-1.55,3.92-1.55s2.93.52,3.94,1.56,1.51,2.39,1.51,4.05v1.3c0,1.61-.51,2.92-1.53,3.94-1.02,1.02-2.31,1.53-3.88,1.53s-2.89-.51-3.93-1.53c-1.04-1.02-1.55-2.37-1.55-4.07v-1.28Zm2.52,1.4c0,.95.27,1.74.8,2.35.54.62,1.26.93,2.16.93s1.56-.3,2.09-.9c.53-.6.8-1.42.8-2.46v-1.34c0-.95-.26-1.74-.79-2.36-.52-.62-1.24-.93-2.14-.93s-1.61.31-2.14.93c-.52.62-.79,1.44-.79,2.44v1.34Zm3.73,18.09l-1.92-1.21,13-20.8,1.92,1.21-13,20.8Zm6.71-4.52c0-1.6.51-2.91,1.53-3.94,1.02-1.03,2.32-1.54,3.92-1.54s2.91.51,3.93,1.54c1.02,1.02,1.54,2.38,1.54,4.08v1.3c0,1.6-.51,2.91-1.53,3.94-1.02,1.03-2.32,1.54-3.9,1.54s-2.89-.51-3.93-1.53c-1.04-1.02-1.55-2.37-1.55-4.07v-1.32Zm2.52,1.42c0,.96.27,1.76.8,2.37.54.62,1.26.93,2.16.93s1.58-.3,2.1-.91c.52-.6.79-1.43.79-2.46v-1.36c0-.96-.27-1.75-.8-2.36-.53-.61-1.24-.92-2.13-.92s-1.57.3-2.11.91c-.54.6-.81,1.42-.81,2.45v1.36Z"/><path class="cls-3" d="m240.94,143.6c-59.49,0-107.71,48.23-107.71,107.72s48.22,107.71,107.71,107.71,107.72-48.22,107.72-107.71-48.22-107.72-107.72-107.72Zm0,197.83c-50.09,0-90.7-40.61-90.7-90.7s40.61-90.71,90.7-90.71,90.71,40.61,90.71,90.71-40.61,90.7-90.71,90.7Z"/><line class="cls-1" y1="382.6" x2="478.6" y2="382.6"/></g></svg>