<?xml version="1.0" encoding="UTF-8"?><svg id="Ebene_2" xmlns="http://www.w3.org/2000/svg" viewBox="0 0 481.89 459.21"><defs><style>.cls-1{fill:none;stroke:#c6d5d6;stroke-miterlimit:10;stroke-width:2.83px;}.cls-2,.cls-3,.cls-4,.cls-5{stroke-width:0px;}.cls-3{fill:#f9c625;}.cls-4{fill:#e3f2f2;}.cls-5{fill:red;}</style></defs><g id="Ebene_1-2"><rect class="cls-4" width="481.89" height="459.21" rx="20.33" ry="20.33"/><path class="cls-2" d="m159.39,48.48v17.79c0,2.83-.9,5.07-2.71,6.72-1.81,1.65-4.22,2.48-7.23,2.48s-5.46-.81-7.26-2.44c-1.79-1.63-2.69-3.88-2.69-6.77v-17.77h4.61v17.8c0,1.78.45,3.14,1.35,4.08.9.94,2.23,1.41,3.98,1.41,3.56,0,5.34-1.88,5.34-5.63v-17.66h4.61Z"/><path class="cls-2" d="m181.59,65.4c0,3.06-.69,5.5-2.08,7.32-1.39,1.82-3.25,2.73-5.59,2.73-2.17,0-3.91-.71-5.21-2.14v9.38h-4.44v-27.38h4.09l.18,2.01c1.3-1.58,3.08-2.38,5.32-2.38,2.41,0,4.31.9,5.68,2.7,1.37,1.8,2.06,4.29,2.06,7.49v.27Zm-4.42-.38c0-1.97-.39-3.54-1.18-4.7-.79-1.16-1.91-1.74-3.37-1.74-1.82,0-3.12.75-3.91,2.25v8.77c.8,1.54,2.12,2.3,3.95,2.3,1.41,0,2.52-.57,3.32-1.71.8-1.14,1.2-2.87,1.2-5.18Z"/><path class="cls-2" d="m190.45,75.09h-4.44v-28.08h4.44v28.08Z"/><path class="cls-2" d="m194.83,65.02c0-1.94.38-3.68,1.15-5.24.77-1.55,1.85-2.75,3.24-3.58,1.39-.83,2.99-1.25,4.79-1.25,2.67,0,4.83.86,6.5,2.58,1.66,1.72,2.56,4,2.7,6.84l.02,1.04c0,1.95-.37,3.69-1.12,5.23-.75,1.54-1.82,2.72-3.22,3.56s-3.01,1.26-4.83,1.26c-2.79,0-5.02-.93-6.7-2.79-1.68-1.86-2.51-4.33-2.51-7.43v-.22Zm4.44.38c0,2.04.42,3.63,1.26,4.78s2.01,1.73,3.51,1.73,2.67-.58,3.5-1.75c.83-1.17,1.25-2.88,1.25-5.14,0-2-.43-3.58-1.29-4.75-.86-1.17-2.03-1.75-3.5-1.75s-2.6.58-3.45,1.73c-.85,1.15-1.28,2.87-1.28,5.16Z"/><path class="cls-2" d="m229.17,75.09c-.2-.38-.37-.99-.51-1.85-1.41,1.47-3.14,2.21-5.19,2.21s-3.61-.57-4.86-1.7c-1.26-1.13-1.88-2.53-1.88-4.2,0-2.11.78-3.73,2.35-4.85,1.57-1.13,3.8-1.69,6.72-1.69h2.72v-1.3c0-1.02-.29-1.84-.86-2.46-.57-.62-1.44-.92-2.61-.92-1.01,0-1.84.25-2.49.76-.65.51-.97,1.15-.97,1.93h-4.44c0-1.08.36-2.1,1.08-3.04.72-.95,1.7-1.69,2.93-2.22,1.24-.54,2.62-.8,4.14-.8,2.31,0,4.16.58,5.54,1.75,1.38,1.16,2.08,2.8,2.12,4.91v8.92c0,1.78.25,3.2.75,4.26v.31h-4.53Zm-4.88-3.2c.88,0,1.7-.21,2.48-.64.77-.43,1.36-1,1.75-1.72v-3.73h-2.39c-1.65,0-2.88.29-3.71.86-.83.57-1.24,1.38-1.24,2.43,0,.85.28,1.53.85,2.04.57.51,1.33.76,2.28.76Z"/><path class="cls-2" d="m237.14,65.06c0-3.05.71-5.49,2.12-7.34,1.41-1.85,3.31-2.77,5.68-2.77,2.1,0,3.79.73,5.08,2.19v-10.13h4.44v28.08h-4.02l-.22-2.05c-1.33,1.61-3.1,2.41-5.32,2.41s-4.19-.93-5.62-2.8c-1.43-1.87-2.15-4.4-2.15-7.6Zm4.44.38c0,2.01.39,3.58,1.16,4.71.77,1.13,1.87,1.69,3.3,1.69,1.82,0,3.14-.81,3.99-2.43v-8.45c-.82-1.58-2.13-2.38-3.95-2.38-1.44,0-2.55.57-3.33,1.71-.78,1.14-1.17,2.85-1.17,5.15Z"/><path class="cls-2" d="m259.49,50.18c0-.68.22-1.25.65-1.7.43-.45,1.05-.68,1.86-.68s1.43.23,1.86.68c.44.45.66,1.02.66,1.7s-.22,1.23-.66,1.67-1.06.67-1.86.67-1.42-.22-1.86-.67c-.43-.44-.65-1-.65-1.67Zm4.72,24.92h-4.44v-19.78h4.44v19.78Z"/><path class="cls-2" d="m273.54,55.32l.13,2.29c1.46-1.77,3.38-2.65,5.76-2.65,4.12,0,6.21,2.36,6.29,7.07v13.07h-4.44v-12.81c0-1.26-.27-2.18-.81-2.79-.54-.6-1.43-.91-2.66-.91-1.79,0-3.13.81-4,2.43v14.08h-4.44v-19.78h4.19Z"/><path class="cls-2" d="m289.83,65.06c0-3.07.72-5.52,2.17-7.36s3.36-2.75,5.75-2.75c2.25,0,4.03.79,5.32,2.36l.2-1.99h4v19.18c0,2.6-.81,4.64-2.42,6.14-1.62,1.5-3.79,2.25-6.54,2.25-1.45,0-2.87-.3-4.25-.9-1.38-.6-2.43-1.39-3.15-2.37l2.1-2.67c1.36,1.62,3.05,2.43,5.04,2.43,1.47,0,2.64-.4,3.49-1.2.85-.8,1.28-1.97,1.28-3.52v-1.33c-1.28,1.43-2.99,2.14-5.12,2.14-2.32,0-4.21-.92-5.68-2.76-1.47-1.84-2.2-4.39-2.2-7.64Zm4.42.38c0,1.99.4,3.55,1.21,4.69s1.93,1.71,3.37,1.71c1.79,0,3.12-.77,3.99-2.3v-8.7c-.84-1.5-2.16-2.25-3.95-2.25-1.46,0-2.6.58-3.41,1.74-.81,1.16-1.21,2.86-1.21,5.12Z"/><path class="cls-2" d="m317.22,70.41c.83,0,1.47.24,1.92.7s.68,1.06.68,1.76-.23,1.27-.68,1.73-1.09.69-1.92.69-1.42-.23-1.88-.68c-.46-.45-.7-1.03-.7-1.74s.23-1.29.68-1.76,1.08-.7,1.9-.7Z"/><path class="cls-2" d="m328.05,70.41c.83,0,1.47.24,1.92.7.45.47.68,1.06.68,1.76s-.23,1.27-.68,1.73c-.45.46-1.09.69-1.92.69s-1.42-.23-1.88-.68c-.46-.45-.69-1.03-.69-1.74s.23-1.29.68-1.76c.45-.47,1.08-.7,1.9-.7Z"/><path class="cls-2" d="m338.88,70.41c.83,0,1.47.24,1.92.7.45.47.68,1.06.68,1.76s-.23,1.27-.68,1.73c-.45.46-1.09.69-1.92.69s-1.42-.23-1.88-.68c-.46-.45-.69-1.03-.69-1.74s.23-1.29.68-1.76c.45-.47,1.08-.7,1.9-.7Z"/><path class="cls-5" d="m205.46,425.6c-.27,2.84-1.32,5.05-3.14,6.64-1.83,1.59-4.26,2.39-7.29,2.39-2.12,0-3.99-.5-5.6-1.51-1.62-1-2.86-2.43-3.74-4.29-.88-1.85-1.33-4-1.37-6.45v-2.49c0-2.51.44-4.72,1.33-6.63s2.17-3.39,3.83-4.42c1.66-1.04,3.59-1.55,5.77-1.55,2.94,0,5.3.79,7.09,2.39,1.79,1.59,2.83,3.84,3.13,6.75h-4.61c-.22-1.91-.78-3.29-1.67-4.14-.9-.85-2.21-1.27-3.94-1.27-2.01,0-3.56.73-4.63,2.2-1.08,1.47-1.63,3.63-1.65,6.47v2.36c0,2.88.52,5.07,1.54,6.59,1.03,1.51,2.54,2.27,4.52,2.27,1.82,0,3.18-.41,4.09-1.22s1.49-2.17,1.74-4.08h4.61Z"/><path class="cls-5" d="m221.35,434.27c-.19-.38-.37-.99-.51-1.85-1.41,1.47-3.14,2.21-5.19,2.21s-3.61-.57-4.86-1.7c-1.25-1.13-1.88-2.53-1.88-4.2,0-2.11.78-3.73,2.35-4.85,1.57-1.13,3.8-1.69,6.72-1.69h2.72v-1.3c0-1.02-.29-1.84-.86-2.46-.57-.62-1.44-.92-2.61-.92-1.01,0-1.84.25-2.49.76-.65.51-.97,1.15-.97,1.93h-4.44c0-1.08.36-2.1,1.08-3.04.72-.95,1.7-1.69,2.93-2.22,1.24-.54,2.62-.8,4.14-.8,2.32,0,4.16.58,5.54,1.75,1.38,1.16,2.08,2.8,2.12,4.91v8.92c0,1.78.25,3.2.75,4.26v.31h-4.53Zm-4.88-3.2c.88,0,1.7-.21,2.48-.64.77-.43,1.36-1,1.75-1.72v-3.73h-2.4c-1.64,0-2.88.29-3.71.86-.83.57-1.24,1.38-1.24,2.43,0,.85.28,1.53.85,2.04s1.33.76,2.28.76Z"/><path class="cls-5" d="m234.28,414.49l.13,2.29c1.46-1.77,3.38-2.65,5.76-2.65,4.12,0,6.21,2.36,6.29,7.07v13.07h-4.44v-12.81c0-1.26-.27-2.18-.81-2.79-.54-.6-1.43-.91-2.66-.91-1.79,0-3.13.81-4,2.43v14.08h-4.44v-19.78h4.19Z"/><path class="cls-5" d="m259.48,431.09c1.11,0,2.03-.32,2.76-.97.73-.65,1.12-1.44,1.17-2.39h4.19c-.05,1.23-.43,2.38-1.15,3.45-.72,1.07-1.69,1.91-2.92,2.53-1.23.62-2.56.93-3.99.93-2.77,0-4.96-.9-6.58-2.69-1.62-1.79-2.43-4.27-2.43-7.42v-.46c0-3.01.8-5.42,2.41-7.23s3.8-2.71,6.58-2.71c2.35,0,4.27.69,5.75,2.06,1.48,1.37,2.26,3.17,2.33,5.4h-4.19c-.05-1.13-.44-2.07-1.16-2.8s-1.65-1.1-2.77-1.1c-1.44,0-2.55.52-3.33,1.56-.78,1.04-1.18,2.62-1.19,4.74v.71c0,2.14.39,3.74,1.16,4.8.77,1.05,1.89,1.58,3.35,1.58Z"/><path class="cls-5" d="m280.04,434.63c-2.82,0-5.1-.89-6.85-2.66-1.75-1.77-2.62-4.13-2.62-7.08v-.55c0-1.97.38-3.74,1.14-5.29.76-1.55,1.83-2.76,3.21-3.63,1.38-.86,2.91-1.3,4.61-1.3,2.69,0,4.77.86,6.24,2.58,1.47,1.72,2.2,4.15,2.2,7.29v1.79h-12.92c.13,1.63.68,2.92,1.64,3.88.96.95,2.16,1.43,3.61,1.43,2.04,0,3.69-.82,4.97-2.47l2.39,2.29c-.79,1.18-1.85,2.1-3.17,2.75-1.32.65-2.81.98-4.45.98Zm-.53-16.95c-1.22,0-2.2.43-2.95,1.28s-1.23,2.04-1.43,3.56h8.46v-.33c-.1-1.49-.49-2.61-1.19-3.37-.7-.76-1.66-1.14-2.89-1.14Z"/><path class="cls-5" d="m296.51,434.27h-4.44v-28.08h4.44v28.08Z"/><path class="cls-2" d="m235.25,252.06c0,3.96-.68,6.9-2.03,8.83s-3.47,2.89-6.34,2.89-4.94-.94-6.31-2.82c-1.37-1.88-2.07-4.7-2.12-8.44v-4.51c0-3.91.68-6.82,2.03-8.72s3.47-2.85,6.36-2.85,4.97.92,6.33,2.75,2.05,4.66,2.08,8.49v4.39Zm-3.38-4.62c0-2.86-.4-4.95-1.21-6.26-.8-1.31-2.08-1.96-3.82-1.96s-2.99.65-3.78,1.96-1.2,3.31-1.22,6.01v5.41c0,2.88.42,5,1.25,6.37.83,1.37,2.1,2.06,3.79,2.06s2.91-.65,3.72-1.94c.81-1.29,1.23-3.33,1.27-6.11v-5.54Z"/><path class="cls-2" d="m239.67,241.91c0-1.6.51-2.91,1.53-3.95,1.02-1.04,2.32-1.55,3.92-1.55s2.93.52,3.94,1.56c1,1.04,1.51,2.39,1.51,4.05v1.3c0,1.61-.51,2.92-1.53,3.94s-2.31,1.53-3.88,1.53-2.89-.51-3.93-1.53c-1.04-1.02-1.55-2.37-1.55-4.07v-1.28Zm2.52,1.4c0,.95.27,1.74.8,2.35s1.26.92,2.16.92,1.56-.3,2.09-.9c.53-.6.79-1.42.79-2.46v-1.34c0-.95-.26-1.74-.79-2.36-.52-.62-1.24-.93-2.14-.93s-1.62.31-2.14.93c-.52.62-.79,1.44-.79,2.44v1.34Zm3.73,18.09l-1.92-1.21,13-20.8,1.92,1.21-13,20.8Zm6.71-4.51c0-1.6.51-2.91,1.53-3.94s2.32-1.54,3.92-1.54,2.91.51,3.93,1.54,1.54,2.38,1.54,4.08v1.3c0,1.6-.51,2.91-1.53,3.94-1.02,1.03-2.32,1.54-3.9,1.54s-2.89-.51-3.93-1.53c-1.04-1.02-1.55-2.37-1.55-4.07v-1.32Zm2.52,1.42c0,.96.27,1.76.8,2.37.54.62,1.25.92,2.16.92s1.58-.3,2.1-.91c.52-.6.79-1.43.79-2.46v-1.36c0-.96-.26-1.75-.79-2.36-.53-.61-1.24-.92-2.13-.92s-1.57.3-2.11.91-.81,1.42-.81,2.45v1.36Z"/><path class="cls-3" d="m240.94,143.6c-59.49,0-107.71,48.23-107.71,107.72s48.22,107.71,107.71,107.71,107.72-48.22,107.72-107.71-48.22-107.72-107.72-107.72Zm0,197.83c-50.09,0-90.7-40.61-90.7-90.7s40.61-90.71,90.7-90.71,90.71,40.61,90.71,90.71-40.61,90.7-90.71,90.7Z"/><line class="cls-1" y1="382.6" x2="481.89" y2="382.6"/></g></svg>