<?xml version="1.0" encoding="UTF-8"?>
<svg id="Ebene_2" data-name="Ebene 2" xmlns="http://www.w3.org/2000/svg" viewBox="0 0 242.36 213.94">
  <defs>
    <style>
      .cls-1 {
        fill: #ed1e79;
        stroke: #ed1e79;
        stroke-miterlimit: 10;
        stroke-width: .59px;
      }

      .cls-2 {
        fill: #6476fd;
      }

      .cls-2, .cls-3, .cls-4, .cls-5, .cls-6 {
        stroke-width: 0px;
      }

      .cls-3 {
        fill: #98f600;
      }

      .cls-4 {
        fill: #1d1d21;
      }

      .cls-5 {
        fill: #e4007e;
      }

      .cls-6 {
        fill: #fff;
      }
    </style>
  </defs>
  <g id="Ebene_1-2" data-name="Ebene 1">
    <g>
      <path class="cls-4" d="m233.5,94.51c-31.53-12.68-50.32-45.32-45.42-78.98v-.03c.14-.75.21-1.52.21-2.31,0-7.19-5.83-13.02-13.02-13.02-2.47,0-4.78.69-6.75,1.89-.18.1-.36.22-.53.33-.3.18-.59.39-.87.61-9.65,7.69-24.75,16.13-45.94,16.13s-35.22-7.92-44.55-15.05c-2.38-2.51-5.74-4.08-9.48-4.08-7.22,0-13.08,5.85-13.08,13.07,0,.63.04,1.24.13,1.84v.03c0,.07.01.13.02.2,5.07,33.6-13.49,66.28-44.83,79.15-5.42,1.59-9.39,6.61-9.39,12.55,0,5.42,3.3,10.07,7.99,12.05.1.05.19.09.29.13,31.38,12.31,50.31,44.29,46.22,77.58.06-.19.12-.38.2-.56.03-.1.06-.19.1-.29.04-.11.08-.21.13-.32.08-.2.17-.4.27-.59-.18.39-.35.79-.5,1.2-.52,1.43-.81,2.97-.81,4.58,0,7.36,5.96,13.32,13.32,13.32s13.32-5.96,13.32-13.32c0-1.15-.15-2.27-.42-3.33l-1.83-10.37c-.23-1.3.45-2.58,1.65-3.11l1.96-.35c1.54-.27,3.01.76,3.28,2.3l2.01,11.45c.22,1.23,1.39,2.05,2.63,1.84h0s13.4-2.37,13.4-2.37l.56-.1c1.23-.21,2.06-1.39,1.84-2.62l-1.92-10.89-.1-.56c-.27-1.54.75-3.01,2.29-3.28l1.82-.32c1.38-.01,2.55.98,2.79,2.33l2,11.33c.25,1.44,1.56,2.45,3.01,2.33,3.78-.29,7.58-.29,11.36,0,1.46.12,2.76-.89,3.01-2.33l2-11.33c.23-1.31,1.33-2.28,2.65-2.36l1.96.35c1.54.27,2.57,1.74,2.3,3.28l-2.02,11.45c-.22,1.23.6,2.4,1.83,2.62h.01l13.39,2.37.56.1c1.24.21,2.41-.61,2.63-1.84l1.92-10.89.1-.56c.27-1.54,1.74-2.57,3.27-2.3l1.83.32c1.27.48,2.02,1.8,1.78,3.14l-1.75,9.93c-.33,1.16-.51,2.38-.51,3.65,0,7.31,5.93,13.25,13.25,13.25s13.25-5.94,13.25-13.25c0-1.03-.12-2.02-.34-2.98-4.55-33.52,14.36-65.94,45.84-78.46,4.99-1.83,8.54-6.61,8.54-12.22s-3.71-10.6-8.86-12.33ZM13.08,112.51c-3.13,0-5.67-2.54-5.67-5.67s2.54-5.67,5.67-5.67,5.67,2.54,5.67,5.67-2.54,5.67-5.67,5.67ZM67.15,7.4c3.13,0,5.67,2.54,5.67,5.67s-2.54,5.67-5.67,5.67-5.67-2.53-5.67-5.67,2.54-5.67,5.67-5.67Zm.06,198.92c-3.15,0-5.7-2.55-5.7-5.7s2.55-5.7,5.7-5.7,5.7,2.56,5.7,5.7-2.56,5.7-5.7,5.7Zm107.86-.16c-3.13,0-5.67-2.53-5.67-5.66s2.54-5.67,5.67-5.67,5.67,2.53,5.67,5.67-2.54,5.66-5.67,5.66Zm.2-187.3c-3.13,0-5.67-2.54-5.67-5.67s2.54-5.67,5.67-5.67,5.67,2.54,5.67,5.67-2.54,5.67-5.67,5.67Zm6.3,170.08c.22.13.43.25.63.39.11.06.21.13.32.2-.31-.21-.62-.4-.95-.59Zm36.25-88.09s0,0,0,0c0,0,0,0,0,0,0,0,0,0,0,0Zm11.54,11.66c-3.14,0-5.67-2.54-5.67-5.67s2.53-5.67,5.67-5.67,5.66,2.54,5.66,5.67-2.53,5.67-5.66,5.67Z"/>
      <g>
        <rect class="cls-6" x="80.95" y="126.3" width="7.33" height="11.91" rx="1.89" ry="1.89"/>
        <rect class="cls-6" x="80.95" y="107.84" width="7.33" height="11.91" rx="1.89" ry="1.89"/>
        <rect class="cls-6" x="80.95" y="89.08" width="7.33" height="11.91" rx="1.89" ry="1.89"/>
        <rect class="cls-6" x="80.95" y="70.34" width="7.33" height="11.91" rx="1.89" ry="1.89"/>
        <rect class="cls-6" x="80.95" y="51.59" width="7.33" height="11.91" rx="1.89" ry="1.89"/>
        <rect class="cls-6" x="99.65" y="126.3" width="7.33" height="11.91" rx="1.89" ry="1.89"/>
        <rect class="cls-6" x="99.65" y="107.84" width="7.33" height="11.91" rx="1.89" ry="1.89"/>
        <rect class="cls-6" x="99.65" y="89.08" width="7.33" height="11.91" rx="1.89" ry="1.89"/>
        <rect class="cls-6" x="99.65" y="70.34" width="7.33" height="11.91" rx="1.89" ry="1.89"/>
        <rect class="cls-6" x="99.65" y="51.59" width="7.33" height="11.91" rx="1.89" ry="1.89"/>
        <rect class="cls-6" x="118.37" y="126.3" width="7.33" height="11.91" rx="1.89" ry="1.89"/>
        <rect class="cls-6" x="118.37" y="107.84" width="7.33" height="11.91" rx="1.89" ry="1.89"/>
        <rect class="cls-6" x="118.37" y="89.08" width="7.33" height="11.91" rx="1.89" ry="1.89"/>
        <rect class="cls-6" x="118.37" y="70.34" width="7.33" height="11.91" rx="1.89" ry="1.89"/>
        <rect class="cls-6" x="118.37" y="51.59" width="7.33" height="11.91" rx="1.89" ry="1.89"/>
        <rect class="cls-6" x="137.1" y="126.3" width="7.33" height="11.91" rx="1.89" ry="1.89"/>
        <rect class="cls-6" x="137.1" y="107.84" width="7.33" height="11.91" rx="1.89" ry="1.89"/>
        <rect class="cls-6" x="137.1" y="89.08" width="7.33" height="11.91" rx="1.89" ry="1.89"/>
        <rect class="cls-6" x="137.1" y="70.34" width="7.33" height="11.91" rx="1.89" ry="1.89"/>
        <rect class="cls-6" x="137.1" y="51.59" width="7.33" height="11.91" rx="1.89" ry="1.89"/>
        <rect class="cls-6" x="155.82" y="126.3" width="7.33" height="11.91" rx="1.89" ry="1.89"/>
        <rect class="cls-6" x="155.82" y="107.84" width="7.33" height="11.91" rx="1.89" ry="1.89"/>
        <rect class="cls-6" x="155.82" y="89.08" width="7.33" height="11.91" rx="1.89" ry="1.89"/>
        <rect class="cls-6" x="155.82" y="70.34" width="7.33" height="11.91" rx="1.89" ry="1.89"/>
        <rect class="cls-6" x="155.82" y="51.59" width="7.33" height="11.91" rx="1.89" ry="1.89"/>
        <rect class="cls-1" x="80.52" y="69.1" width="8.2" height="14.38" rx="1.62" ry="1.62"/>
        <rect class="cls-1" x="99.23" y="69.1" width="8.2" height="14.38" rx="1.62" ry="1.62"/>
        <rect class="cls-1" x="136.66" y="69.1" width="8.2" height="14.38" rx="1.62" ry="1.62"/>
        <rect class="cls-1" x="155.39" y="69.1" width="8.2" height="14.38" rx="1.62" ry="1.62"/>
        <rect class="cls-1" x="99.22" y="50.36" width="8.2" height="14.38" rx="1.62" ry="1.62"/>
        <rect class="cls-1" x="136.66" y="50.36" width="8.2" height="14.38" rx="1.62" ry="1.62"/>
        <rect class="cls-1" x="117.94" y="69.1" width="8.2" height="14.38" rx="1.62" ry="1.62"/>
        <rect class="cls-1" x="80.52" y="87.85" width="8.2" height="14.38" rx="1.62" ry="1.62"/>
        <rect class="cls-1" x="99.23" y="87.85" width="8.2" height="14.38" rx="1.62" ry="1.62"/>
        <rect class="cls-1" x="136.66" y="87.85" width="8.2" height="14.38" rx="1.62" ry="1.62"/>
        <rect class="cls-1" x="155.39" y="87.85" width="8.2" height="14.38" rx="1.62" ry="1.62"/>
        <rect class="cls-1" x="117.94" y="87.85" width="8.2" height="14.38" rx="1.62" ry="1.62"/>
        <rect class="cls-1" x="117.94" y="106.61" width="8.2" height="14.38" rx="1.62" ry="1.62"/>
        <rect class="cls-1" x="99.23" y="106.61" width="8.2" height="14.38" rx="1.62" ry="1.62"/>
        <rect class="cls-1" x="136.66" y="106.61" width="8.2" height="14.38" rx="1.62" ry="1.62"/>
        <rect class="cls-1" x="117.94" y="125.06" width="8.2" height="14.38" rx="1.62" ry="1.62"/>
        <circle class="cls-5" cx="104.59" cy="159.31" r="4.1"/>
        <circle class="cls-2" cx="122.03" cy="159.31" r="4.1"/>
        <circle class="cls-3" cx="139.48" cy="159.31" r="4.1"/>
      </g>
    </g>
  </g>
</svg>