<?xml version="1.0" encoding="UTF-8"?>
<svg id="Ebene_2" data-name="Ebene 2" xmlns="http://www.w3.org/2000/svg" viewBox="0 0 465.34 213.94">
  <defs>
    <style>
      .cls-1 {
        fill: #ed1e79;
        stroke: #ed1e79;
        stroke-miterlimit: 10;
        stroke-width: .59px;
      }

      .cls-2 {
        fill: #6476fd;
      }

      .cls-2, .cls-3, .cls-4, .cls-5, .cls-6, .cls-7, .cls-8, .cls-9 {
        stroke-width: 0px;
      }

      .cls-3 {
        fill: #98f600;
      }

      .cls-4 {
        fill: #42c8c8;
      }

      .cls-5 {
        fill: #1d1d21;
      }

      .cls-6 {
        fill: #e4007e;
      }

      .cls-7 {
        fill: #fff;
      }

      .cls-8 {
        fill: gold;
      }

      .cls-9 {
        fill: #f5f5f5;
      }
    </style>
  </defs>
  <g id="Ebene_1-2" data-name="Ebene 1">
    <g>
      <path class="cls-5" d="m456.48,94.51c-31.53-12.68-50.32-45.32-45.42-78.98v-.03c.14-.75.21-1.52.21-2.31,0-7.19-5.83-13.02-13.02-13.02-2.47,0-4.78.69-6.75,1.89-.18.1-.36.22-.53.33-.3.18-.59.39-.87.61-9.65,7.69-24.75,16.13-45.94,16.13s-35.22-7.92-44.55-15.05c-2.38-2.51-5.74-4.08-9.48-4.08-7.22,0-13.08,5.85-13.08,13.07,0,.63.04,1.24.13,1.84v.03c0,.07.01.13.02.2,5.07,33.6-13.49,66.28-44.83,79.15-5.42,1.59-9.39,6.61-9.39,12.55,0,5.42,3.3,10.07,7.99,12.05.1.05.19.09.29.13,31.38,12.31,50.31,44.29,46.22,77.58.06-.19.12-.38.2-.56.03-.1.06-.19.1-.29.04-.11.08-.21.13-.32.08-.2.17-.4.27-.59-.18.39-.35.79-.5,1.2-.52,1.43-.81,2.97-.81,4.58,0,7.36,5.96,13.32,13.32,13.32s13.32-5.96,13.32-13.32c0-1.15-.15-2.27-.42-3.33l-1.83-10.37c-.23-1.3.45-2.58,1.65-3.11l1.96-.35c1.54-.27,3.01.76,3.28,2.3l2.01,11.45c.22,1.23,1.39,2.05,2.63,1.84h0s13.4-2.37,13.4-2.37l.56-.1c1.23-.21,2.06-1.39,1.84-2.62l-1.92-10.89-.1-.56c-.27-1.54.75-3.01,2.29-3.28l1.82-.32c1.38-.01,2.55.98,2.79,2.33l2,11.33c.25,1.44,1.56,2.45,3.01,2.33,3.78-.29,7.58-.29,11.36,0,1.46.12,2.76-.89,3.01-2.33l2-11.33c.23-1.31,1.33-2.28,2.65-2.36l1.96.35c1.54.27,2.57,1.74,2.3,3.28l-2.02,11.45c-.22,1.23.6,2.4,1.83,2.62h.01l13.39,2.37.56.1c1.24.21,2.41-.61,2.63-1.84l1.92-10.89.1-.56c.27-1.54,1.74-2.57,3.27-2.3l1.83.32c1.27.48,2.02,1.8,1.78,3.14l-1.75,9.93c-.33,1.16-.51,2.38-.51,3.65,0,7.31,5.93,13.25,13.25,13.25s13.25-5.94,13.25-13.25c0-1.03-.12-2.02-.34-2.98-4.55-33.52,14.36-65.94,45.84-78.46,4.99-1.83,8.54-6.61,8.54-12.22s-3.71-10.6-8.86-12.33Zm-220.42,18c-3.13,0-5.67-2.54-5.67-5.67s2.54-5.67,5.67-5.67,5.67,2.54,5.67,5.67-2.54,5.67-5.67,5.67ZM290.13,7.4c3.13,0,5.67,2.54,5.67,5.67s-2.54,5.67-5.67,5.67-5.67-2.53-5.67-5.67,2.54-5.67,5.67-5.67Zm.06,198.92c-3.15,0-5.7-2.55-5.7-5.7s2.55-5.7,5.7-5.7,5.7,2.56,5.7,5.7-2.56,5.7-5.7,5.7Zm107.86-.16c-3.13,0-5.67-2.53-5.67-5.66s2.54-5.67,5.67-5.67,5.67,2.53,5.67,5.67-2.54,5.66-5.67,5.66Zm.2-187.3c-3.13,0-5.67-2.54-5.67-5.67s2.54-5.67,5.67-5.67,5.67,2.54,5.67,5.67-2.54,5.67-5.67,5.67Zm6.3,170.08c.22.13.43.25.63.39.11.06.21.13.32.2-.31-.21-.62-.4-.95-.59Zm36.25-88.09s0,0,0,0c0,0,0,0,0,0,0,0,0,0,0,0Zm11.54,11.66c-3.14,0-5.67-2.54-5.67-5.67s2.53-5.67,5.67-5.67,5.66,2.54,5.66,5.67-2.53,5.67-5.66,5.67Z"/>
      <g>
        <rect class="cls-7" x="303.93" y="126.3" width="7.33" height="11.91" rx="1.89" ry="1.89"/>
        <rect class="cls-7" x="303.93" y="107.84" width="7.33" height="11.91" rx="1.89" ry="1.89"/>
        <rect class="cls-7" x="303.93" y="89.08" width="7.33" height="11.91" rx="1.89" ry="1.89"/>
        <rect class="cls-7" x="303.93" y="70.34" width="7.33" height="11.91" rx="1.89" ry="1.89"/>
        <rect class="cls-7" x="303.93" y="51.59" width="7.33" height="11.91" rx="1.89" ry="1.89"/>
        <rect class="cls-7" x="322.63" y="126.3" width="7.33" height="11.91" rx="1.89" ry="1.89"/>
        <rect class="cls-7" x="322.63" y="107.84" width="7.33" height="11.91" rx="1.89" ry="1.89"/>
        <rect class="cls-7" x="322.63" y="89.08" width="7.33" height="11.91" rx="1.89" ry="1.89"/>
        <rect class="cls-7" x="322.63" y="70.34" width="7.33" height="11.91" rx="1.89" ry="1.89"/>
        <rect class="cls-7" x="322.63" y="51.59" width="7.33" height="11.91" rx="1.89" ry="1.89"/>
        <rect class="cls-7" x="341.35" y="126.3" width="7.33" height="11.91" rx="1.89" ry="1.89"/>
        <rect class="cls-7" x="341.35" y="107.84" width="7.33" height="11.91" rx="1.89" ry="1.89"/>
        <rect class="cls-7" x="341.35" y="89.08" width="7.33" height="11.91" rx="1.89" ry="1.89"/>
        <rect class="cls-7" x="341.35" y="70.34" width="7.33" height="11.91" rx="1.89" ry="1.89"/>
        <rect class="cls-7" x="341.35" y="51.59" width="7.33" height="11.91" rx="1.89" ry="1.89"/>
        <rect class="cls-7" x="360.07" y="126.3" width="7.33" height="11.91" rx="1.89" ry="1.89"/>
        <rect class="cls-7" x="360.07" y="107.84" width="7.33" height="11.91" rx="1.89" ry="1.89"/>
        <rect class="cls-7" x="360.07" y="89.08" width="7.33" height="11.91" rx="1.89" ry="1.89"/>
        <rect class="cls-7" x="360.07" y="70.34" width="7.33" height="11.91" rx="1.89" ry="1.89"/>
        <rect class="cls-7" x="360.07" y="51.59" width="7.33" height="11.91" rx="1.89" ry="1.89"/>
        <rect class="cls-7" x="378.79" y="126.3" width="7.33" height="11.91" rx="1.89" ry="1.89"/>
        <rect class="cls-7" x="378.79" y="107.84" width="7.33" height="11.91" rx="1.89" ry="1.89"/>
        <rect class="cls-7" x="378.79" y="89.08" width="7.33" height="11.91" rx="1.89" ry="1.89"/>
        <rect class="cls-7" x="378.79" y="70.34" width="7.33" height="11.91" rx="1.89" ry="1.89"/>
        <rect class="cls-7" x="378.79" y="51.59" width="7.33" height="11.91" rx="1.89" ry="1.89"/>
        <rect class="cls-1" x="322.19" y="50.36" width="8.2" height="14.38" rx="1.62" ry="1.62"/>
        <rect class="cls-1" x="303.5" y="50.36" width="8.2" height="14.38" rx="1.62" ry="1.62"/>
        <rect class="cls-1" x="359.64" y="50.36" width="8.2" height="14.38" rx="1.62" ry="1.62"/>
        <rect class="cls-1" x="340.92" y="50.36" width="8.2" height="14.38" rx="1.62" ry="1.62"/>
        <rect class="cls-1" x="340.92" y="87.85" width="8.2" height="14.38" rx="1.62" ry="1.62"/>
        <rect class="cls-1" x="359.64" y="69.1" width="8.2" height="14.38" rx="1.62" ry="1.62"/>
        <rect class="cls-1" x="303.5" y="106.61" width="8.2" height="14.38" rx="1.62" ry="1.62"/>
        <rect class="cls-1" x="359.64" y="106.61" width="8.2" height="14.38" rx="1.62" ry="1.62"/>
        <rect class="cls-1" x="340.91" y="125.38" width="8.2" height="14.38" rx="1.62" ry="1.62"/>
        <rect class="cls-1" x="322.2" y="125.38" width="8.2" height="14.38" rx="1.62" ry="1.62"/>
        <circle class="cls-6" cx="327.57" cy="159.31" r="4.1"/>
        <circle class="cls-2" cx="345.01" cy="159.31" r="4.1"/>
        <circle class="cls-3" cx="362.45" cy="159.31" r="4.1"/>
      </g>
      <g id="JacDac">
        <g>
          <g id="LWPOLYLINE">
            <path class="cls-8" d="m315.06,183.38c.14-.29.19-.61.13-.95-.14-.8-.83-1.36-1.61-1.31-.07-.01-.13,0-.2,0-.85.16-1.42.99-1.27,1.86.06.34.21.63.43.84l1.67,9.71c.11.63.7,1.05,1.32.95l.28-.05c.62-.12,1.03-.71.92-1.35l-1.67-9.71h0s0,.01,0,.01Zm-1.4.36c-.54,0-1-.45-1-1.01s.46-1.01,1-1.01,1,.45,1,1.01-.45,1.01-1,1.01Z"/>
          </g>
          <g id="ARC">
            <path class="cls-8" d="m318.6,182.73h0c.14-.3.19-.61.13-.95-.15-.87-.96-1.44-1.81-1.29-.85.16-1.42.99-1.27,1.86.06.34.21.63.43.84l1.92,11.15c.11.63.7,1.05,1.32.95l.28-.05c.62-.12,1.03-.71.92-1.35l-1.92-11.15h0Zm-1.4.36c-.55,0-1-.45-1-1.01s.45-1.01,1-1.01.99.45.99,1.01-.45,1.01-.99,1.01Z"/>
          </g>
          <g id="LWPOLYLINE-2">
            <path class="cls-8" d="m322.15,182.1c.14-.29.19-.61.13-.95-.06-.35-.22-.65-.45-.86-.35-.36-.85-.53-1.36-.44-.85.16-1.42.99-1.27,1.86.06.34.21.63.43.84l1.92,11.15c.11.63.7,1.05,1.32.95l.28-.05c.62-.12,1.03-.71.92-1.34l-1.92-11.15h0Zm-1.41.36c-.55,0-.99-.46-.99-1.01s.44-1.03.99-1.03.99.46.99,1.03-.44,1.01-.99,1.01Z"/>
          </g>
        </g>
        <g>
          <g id="LINE">
            <path class="cls-8" d="m371.48,180.5c-.85-.16-1.66.42-1.81,1.29-.06.33,0,.65.13.93h0l-1.92,11.16c-.11.63.3,1.24.92,1.35l.28.05c.62.12,1.21-.32,1.32-.95l1.92-11.15c.22-.22.37-.5.43-.84.15-.87-.42-1.7-1.27-1.86h0Zm-.27,2.59c-.55,0-.99-.45-.99-1.01s.44-1.01.99-1.01.99.45.99,1.01-.44,1.01-.99,1.01Z"/>
          </g>
          <g id="LWPOLYLINE-3">
            <path class="cls-8" d="m367.93,179.85c-.54-.1-1.07.1-1.42.5-.2.2-.34.48-.39.8-.06.33-.01.65.13.95l-1.67,9.71c-.11.63.3,1.24.92,1.35l.28.05c.62.1,1.21-.32,1.32-.95l1.67-9.71c.22-.22.37-.5.43-.84.15-.87-.42-1.7-1.27-1.86h0Zm-.27,2.59c-.55,0-.99-.45-.99-1.01,0-.24.09-.48.25-.65.16-.22.43-.36.74-.36.55,0,.99.45.99,1.01s-.44,1.01-.99,1.01Z"/>
          </g>
          <g id="LWPOLYLINE-4">
            <path class="cls-8" d="m375.03,181.13c-.09-.02-.18-.02-.27-.02-.75,0-1.41.54-1.54,1.32-.06.33-.01.65.13.95l-1.92,11.15c-.11.63.3,1.23.92,1.34l.28.05c.62.12,1.21-.31,1.31-.95l1.93-11.15c.22-.22.37-.5.43-.84.15-.87-.42-1.7-1.27-1.86h0Zm-.27,2.6c-.55,0-.99-.45-.99-1.01s.44-1.01.99-1.01.99.45.99,1.01-.44,1.01-.99,1.01Z"/>
          </g>
        </g>
      </g>
    </g>
    <g>
      <circle class="cls-9" cx="98.37" cy="100.2" r="98.37"/>
      <g>
        <path class="cls-4" d="m66.69,121.79l17.75-58.89h17.96l-27.27,78.3h-16.83L31.14,62.9h17.91l17.64,58.89Z"/>
        <path class="cls-4" d="m123.92,95.17h8.28c3.94,0,6.86-.99,8.77-2.96,1.9-1.97,2.85-4.59,2.85-7.85s-.94-5.61-2.82-7.37c-1.88-1.76-4.47-2.64-7.77-2.64-2.98,0-5.47.82-7.48,2.45-2.01,1.63-3.01,3.76-3.01,6.37h-15.54c0-4.09,1.1-7.75,3.31-11,2.21-3.24,5.29-5.78,9.25-7.61s8.33-2.74,13.1-2.74c8.28,0,14.77,1.98,19.47,5.94s7.05,9.42,7.05,16.38c0,3.59-1.09,6.88-3.28,9.9-2.19,3.01-5.06,5.32-8.61,6.94,4.41,1.58,7.7,3.94,9.87,7.1,2.17,3.16,3.25,6.88,3.25,11.19,0,6.96-2.54,12.53-7.61,16.73-5.07,4.19-11.79,6.29-20.14,6.29-7.82,0-14.21-2.06-19.17-6.19-4.96-4.12-7.45-9.57-7.45-16.35h15.54c0,2.94,1.1,5.34,3.31,7.21,2.21,1.86,4.92,2.8,8.15,2.8,3.69,0,6.59-.98,8.69-2.93,2.1-1.95,3.15-4.54,3.15-7.77,0-7.82-4.3-11.72-12.91-11.72h-8.23v-12.15Z"/>
      </g>
    </g>
  </g>
</svg>